<svg width="1400" height="400" viewBox="0 0 1400 400" xmlns="http://www.w3.org/2000/svg" role="img" aria-label="WORDBANK — an onchain type specimen. The word is the art.">
  <defs>
    <filter id="plateShadow" x="-30%" y="-30%" width="160%" height="160%">
      <feDropShadow dx="0" dy="4" stdDeviation="6" flood-color="#1a1206" flood-opacity="0.22"/>
    </filter>
  </defs>
  <!-- Paper ground (single solid rect, per the collection's rule) -->
  <rect width="1400" height="400" fill="#f6f1e4"/>
  <!-- specimen-sheet outer hairline frame -->
  <rect x="20.5" y="20.5" width="1359" height="359" rx="6" fill="none" stroke="#e2d9c2" stroke-width="2"/>
  <rect x="27.5" y="27.5" width="1345" height="345" rx="4" fill="none" stroke="#e2d9c2" stroke-width="1" opacity="0.6"/>

  <!-- eyebrow rules -->
  <line x1="263.64250000000004" y1="88.86" x2="413.64250000000004" y2="88.86" stroke="#6b4a2b" stroke-width="1" opacity="0.55"/>
  <line x1="986.3575" y1="88.86" x2="1136.3575" y2="88.86" stroke="#6b4a2b" stroke-width="1" opacity="0.55"/>

  <!-- eyebrow -->
  <g transform="translate(443.64 96.00) scale(0.1)" fill="#6b4a2b"><path d="M34.440-49.980L35.280-58.800L96.495-58.800L97.020-49.980L34.440-49.980M45.360-3.780Q45.360-2.100 44.152-1.050Q42.945 0 40.320 0L7.665 0Q5.145 0 3.885-0.997Q2.625-1.995 2.625-3.780Q2.625-5.040 3.360-5.933Q4.095-6.825 6.090-7.665L9.975-9.030Q13.020-10.395 14.857-12.915Q16.695-15.435 18.690-21.735L53.865-129.885Q55.230-133.980 54.442-135.870Q53.655-137.760 50.085-138.915Q47.460-139.755 46.358-140.752Q45.255-141.750 45.255-143.325Q45.255-145.110 46.567-146.055Q47.880-147 50.505-147L96.390-147Q99.015-147 100.275-146.055Q101.535-145.110 101.535-143.325Q101.535-141.750 100.485-140.700Q99.435-139.650 96.915-139.020Q94.080-138.285 93.502-136.920Q92.925-135.555 93.975-132.405L132.090-17.850Q133.455-13.440 135.345-11.287Q137.235-9.135 140.700-8.295Q143.430-7.350 144.322-6.352Q145.215-5.355 145.215-3.780Q145.215-2.100 143.903-1.050Q142.590 0 139.965 0L96.180 0Q93.555 0 92.295-1.050Q91.035-2.100 91.035-3.780Q91.035-5.250 91.927-6.195Q92.820-7.140 94.815-7.665L101.325-8.820Q104.055-9.555 104.108-11.287Q104.160-13.020 102.900-16.800L63.945-136.080L67.095-138.285L29.715-22.890Q28.350-18.795 28.508-16.117Q28.665-13.440 30.450-11.812Q32.235-10.185 35.700-8.820L41.685-7.560Q43.575-6.930 44.468-6.090Q45.360-5.250 45.360-3.780" transform="translate(0.00 0)"/><path d="M55.230-3.780Q55.230-2.100 53.970-1.050Q52.710 0 50.085 0L13.965 0Q11.340 0 10.080-1.050Q8.820-2.100 8.820-3.780Q8.820-6.615 12.705-8.085L18.480-9.660Q23.205-11.235 25.043-13.440Q26.880-15.645 26.880-20.370L26.880-116.760Q26.880-119.805 26.145-121.695Q25.410-123.585 22.575-127.050L13.440-138.810Q12.075-140.700 11.497-141.750Q10.920-142.800 10.920-143.745Q10.920-145.320 12.075-146.160Q13.230-147 15.120-147L37.170-147Q39.690-147 41.422-146.055Q43.155-145.110 45.045-142.485L129.045-29.190L124.845-19.740L124.845-126.630Q124.845-131.355 123.112-133.507Q121.380-135.660 116.445-137.340L110.040-138.915Q106.155-140.490 106.155-143.220Q106.155-145.005 107.415-146.002Q108.675-147 111.300-147L147.420-147Q150.045-147 151.305-146.002Q152.565-145.005 152.565-143.220Q152.565-140.385 148.680-138.915L142.905-137.340Q138.180-135.870 136.343-133.665Q134.505-131.460 134.505-126.630L134.505-26.775Q134.505-23.835 135.082-21.840Q135.660-19.845 136.920-18.060L143.535-9.135Q145.215-6.930 145.635-5.775Q146.055-4.620 146.055-3.465Q146.055-1.890 144.900-0.945Q143.745 0 141.540 0L116.760 0Q112.665 0 112.665-3.360Q112.665-4.830 112.087-6.195Q111.510-7.560 108.885-10.920L28.455-119.805L36.540-125.265L36.540-20.265Q36.540-15.750 38.273-13.598Q40.005-11.445 44.940-9.660L51.345-8.085Q55.230-6.615 55.230-3.780" transform="translate(220.19 0)"/><path d="M82.215-150.360Q99.015-150.360 112.665-144.690Q126.315-139.020 136.132-128.625Q145.950-118.230 151.252-104.002Q156.555-89.775 156.555-72.765Q156.555-56.070 151.252-42.105Q145.950-28.140 136.185-17.902Q126.420-7.665 112.822-2.047Q99.225 3.570 82.530 3.570Q65.940 3.570 52.343-2.100Q38.745-7.770 28.927-18.165Q19.110-28.560 13.807-42.840Q8.505-57.120 8.505-74.235Q8.505-90.825 13.807-104.737Q19.110-118.650 28.822-128.887Q38.535-139.125 52.080-144.743Q65.625-150.360 82.215-150.360M127.680-56.175Q127.680-70.140 125.055-82.897Q122.430-95.655 117.600-106.312Q112.770-116.970 106.313-124.845Q99.855-132.720 92.085-137.025Q84.315-141.330 75.810-141.330Q64.365-141.330 55.755-135.345Q47.145-129.360 42.367-118.072Q37.590-106.785 37.590-90.825Q37.590-76.650 40.215-63.840Q42.840-51.030 47.617-40.372Q52.395-29.715 58.852-21.840Q65.310-13.965 73.028-9.607Q80.745-5.250 89.250-5.250Q100.905-5.250 109.515-11.287Q118.125-17.325 122.902-28.665Q127.680-40.005 127.680-56.175" transform="translate(683.34 0)"/><path d="M55.230-3.780Q55.230-2.100 53.970-1.050Q52.710 0 50.085 0L13.965 0Q11.340 0 10.080-1.050Q8.820-2.100 8.820-3.780Q8.820-6.615 12.705-8.085L18.480-9.660Q23.205-11.235 25.043-13.440Q26.880-15.645 26.880-20.370L26.880-116.760Q26.880-119.805 26.145-121.695Q25.410-123.585 22.575-127.050L13.440-138.810Q12.075-140.700 11.497-141.750Q10.920-142.800 10.920-143.745Q10.920-145.320 12.075-146.160Q13.230-147 15.120-147L37.170-147Q39.690-147 41.422-146.055Q43.155-145.110 45.045-142.485L129.045-29.190L124.845-19.740L124.845-126.630Q124.845-131.355 123.112-133.507Q121.380-135.660 116.445-137.340L110.040-138.915Q106.155-140.490 106.155-143.220Q106.155-145.005 107.415-146.002Q108.675-147 111.300-147L147.420-147Q150.045-147 151.305-146.002Q152.565-145.005 152.565-143.220Q152.565-140.385 148.680-138.915L142.905-137.340Q138.180-135.870 136.343-133.665Q134.505-131.460 134.505-126.630L134.505-26.775Q134.505-23.835 135.082-21.840Q135.660-19.845 136.920-18.060L143.535-9.135Q145.215-6.930 145.635-5.775Q146.055-4.620 146.055-3.465Q146.055-1.890 144.900-0.945Q143.745 0 141.540 0L116.760 0Q112.665 0 112.665-3.360Q112.665-4.830 112.087-6.195Q111.510-7.560 108.885-10.920L28.455-119.805L36.540-125.265L36.540-20.265Q36.540-15.750 38.273-13.598Q40.005-11.445 44.940-9.660L51.345-8.085Q55.230-6.615 55.230-3.780" transform="translate(919.90 0)"/><path d="M138.180-38.430Q137.970-30.870 133.928-23.415Q129.885-15.960 122.430-9.817Q114.975-3.675 104.422 0.053Q93.870 3.780 80.640 3.780Q58.380 3.780 42.210-5.985Q26.040-15.750 17.273-32.917Q8.505-50.085 8.505-72.450Q8.505-89.355 13.702-103.582Q18.900-117.810 28.350-128.362Q37.800-138.915 50.557-144.690Q63.315-150.465 78.435-150.465Q89.145-150.465 95.865-148.260Q102.585-146.055 106.417-143.850Q110.250-141.645 112.140-141.645Q114.450-141.645 115.815-143.588Q117.180-145.530 118.545-147.472Q119.910-149.415 122.220-149.415Q123.690-149.415 124.740-148.470Q125.790-147.525 126.420-145.110L137.550-108.570Q138.180-106.470 137.183-104.947Q136.185-103.425 134.190-103.005Q132.195-102.690 130.620-103.530Q129.045-104.370 128.100-106.365Q122.325-119.175 115.343-126.840Q108.360-134.505 100.117-137.917Q91.875-141.330 82.110-141.330Q72.345-141.330 64.050-136.972Q55.755-132.615 49.718-124.477Q43.680-116.340 40.320-104.843Q36.960-93.345 36.960-79.065Q36.960-57.225 43.785-42.105Q50.610-26.985 62.475-19.110Q74.340-11.235 89.460-11.235Q104.475-11.235 115.080-18.480Q125.685-25.725 131.040-38.640Q132.090-40.635 133.192-41.317Q134.295-42 135.660-41.790Q137.025-41.580 137.602-40.740Q138.180-39.900 138.180-38.430" transform="translate(1151.01 0)"/><path d="M38.640-65.205L38.640-73.920L128.835-73.920L128.835-65.205L38.640-65.205M54.495-132.300L54.495-14.700Q54.495-12.600 55.807-11.287Q57.120-9.975 59.535-9.345L66.360-7.980Q70.140-6.930 70.140-3.780Q70.140-2.100 68.933-1.050Q67.725 0 65.100 0L15.855 0Q13.230 0 12.022-1.050Q10.815-2.100 10.815-3.780Q10.815-6.930 14.595-7.980L21.420-9.345Q23.940-9.975 25.200-11.287Q26.460-12.600 26.460-14.700L26.460-132.300Q26.460-134.400 25.200-135.713Q23.940-137.025 21.420-137.655L14.595-139.020Q10.815-140.070 10.815-143.220Q10.815-145.005 12.022-146.002Q13.230-147 15.855-147L65.100-147Q67.725-147 68.933-146.002Q70.140-145.005 70.140-143.220Q70.140-140.070 66.360-139.020L59.535-137.655Q57.120-137.025 55.807-135.713Q54.495-134.400 54.495-132.300M147-132.300L147-14.700Q147-12.600 148.313-11.287Q149.625-9.975 152.040-9.345L158.865-7.980Q162.645-6.930 162.645-3.780Q162.645-2.100 161.438-1.050Q160.230 0 157.605 0L108.360 0Q105.735 0 104.527-1.050Q103.320-2.100 103.320-3.780Q103.320-6.930 107.100-7.980L113.925-9.345Q116.445-9.975 117.705-11.287Q118.965-12.600 118.965-14.700L118.965-132.300Q118.965-134.400 117.705-135.713Q116.445-137.025 113.925-137.655L107.100-139.020Q103.320-140.070 103.320-143.220Q103.320-145.005 104.527-146.002Q105.735-147 108.360-147L157.605-147Q160.230-147 161.438-146.002Q162.645-145.005 162.645-143.220Q162.645-140.070 158.865-139.020L152.040-137.655Q149.625-137.025 148.313-135.713Q147-134.400 147-132.300" transform="translate(1367.41 0)"/><path d="M34.440-49.980L35.280-58.800L96.495-58.800L97.020-49.980L34.440-49.980M45.360-3.780Q45.360-2.100 44.152-1.050Q42.945 0 40.320 0L7.665 0Q5.145 0 3.885-0.997Q2.625-1.995 2.625-3.780Q2.625-5.040 3.360-5.933Q4.095-6.825 6.090-7.665L9.975-9.030Q13.020-10.395 14.857-12.915Q16.695-15.435 18.690-21.735L53.865-129.885Q55.230-133.980 54.442-135.870Q53.655-137.760 50.085-138.915Q47.460-139.755 46.358-140.752Q45.255-141.750 45.255-143.325Q45.255-145.110 46.567-146.055Q47.880-147 50.505-147L96.390-147Q99.015-147 100.275-146.055Q101.535-145.110 101.535-143.325Q101.535-141.750 100.485-140.700Q99.435-139.650 96.915-139.020Q94.080-138.285 93.502-136.920Q92.925-135.555 93.975-132.405L132.090-17.850Q133.455-13.440 135.345-11.287Q137.235-9.135 140.700-8.295Q143.430-7.350 144.322-6.352Q145.215-5.355 145.215-3.780Q145.215-2.100 143.903-1.050Q142.590 0 139.965 0L96.180 0Q93.555 0 92.295-1.050Q91.035-2.100 91.035-3.780Q91.035-5.250 91.927-6.195Q92.820-7.140 94.815-7.665L101.325-8.820Q104.055-9.555 104.108-11.287Q104.160-13.020 102.900-16.800L63.945-136.080L67.095-138.285L29.715-22.890Q28.350-18.795 28.508-16.117Q28.665-13.440 30.450-11.812Q32.235-10.185 35.700-8.820L41.685-7.560Q43.575-6.930 44.468-6.090Q45.360-5.250 45.360-3.780" transform="translate(1612.27 0)"/><path d="M54.390-132.300L54.390-14.700Q54.390-12.600 55.703-11.287Q57.015-9.975 59.430-9.345L66.255-7.980Q70.035-6.930 70.035-3.780Q70.035-2.100 68.828-1.050Q67.620 0 64.995 0L15.750 0Q13.230 0 11.970-1.050Q10.710-2.100 10.710-3.780Q10.710-6.930 14.490-7.980L21.315-9.345Q23.835-9.975 25.095-11.287Q26.355-12.600 26.355-14.700L26.355-132.300Q26.355-134.400 25.095-135.713Q23.835-137.025 21.315-137.655L14.490-139.020Q10.710-140.070 10.710-143.220Q10.710-145.005 11.970-146.002Q13.230-147 15.750-147L64.995-147Q67.620-147 68.828-146.002Q70.035-145.005 70.035-143.220Q70.035-140.070 66.255-139.020L59.430-137.655Q57.015-137.025 55.703-135.713Q54.390-134.400 54.390-132.300" transform="translate(1832.46 0)"/><path d="M55.230-3.780Q55.230-2.100 53.970-1.050Q52.710 0 50.085 0L13.965 0Q11.340 0 10.080-1.050Q8.820-2.100 8.820-3.780Q8.820-6.615 12.705-8.085L18.480-9.660Q23.205-11.235 25.043-13.440Q26.880-15.645 26.880-20.370L26.880-116.760Q26.880-119.805 26.145-121.695Q25.410-123.585 22.575-127.050L13.440-138.810Q12.075-140.700 11.497-141.750Q10.920-142.800 10.920-143.745Q10.920-145.320 12.075-146.160Q13.230-147 15.120-147L37.170-147Q39.690-147 41.422-146.055Q43.155-145.110 45.045-142.485L129.045-29.190L124.845-19.740L124.845-126.630Q124.845-131.355 123.112-133.507Q121.380-135.660 116.445-137.340L110.040-138.915Q106.155-140.490 106.155-143.220Q106.155-145.005 107.415-146.002Q108.675-147 111.300-147L147.420-147Q150.045-147 151.305-146.002Q152.565-145.005 152.565-143.220Q152.565-140.385 148.680-138.915L142.905-137.340Q138.180-135.870 136.343-133.665Q134.505-131.460 134.505-126.630L134.505-26.775Q134.505-23.835 135.082-21.840Q135.660-19.845 136.920-18.060L143.535-9.135Q145.215-6.930 145.635-5.775Q146.055-4.620 146.055-3.465Q146.055-1.890 144.900-0.945Q143.745 0 141.540 0L116.760 0Q112.665 0 112.665-3.360Q112.665-4.830 112.087-6.195Q111.510-7.560 108.885-10.920L28.455-119.805L36.540-125.265L36.540-20.265Q36.540-15.750 38.273-13.598Q40.005-11.445 44.940-9.660L51.345-8.085Q55.230-6.615 55.230-3.780" transform="translate(1984.60 0)"/><path d="M32.550-147L109.200-147Q112.665-147 114.870-147.998Q117.075-148.995 118.807-149.940Q120.540-150.885 122.430-150.885Q125.160-150.885 126.578-149.572Q127.995-148.260 128.835-145.005L135.870-110.775Q136.395-108.255 135.607-106.733Q134.820-105.210 132.720-104.895Q130.830-104.475 129.360-105.210Q127.890-105.945 126.840-108.150Q121.485-120.855 117.495-127.312Q113.505-133.770 109.462-136.028Q105.420-138.285 99.645-138.285L84.945-138.285L84.945-14.700Q84.945-12.600 86.257-11.287Q87.570-9.975 89.985-9.345L96.810-7.980Q100.590-6.930 100.590-3.780Q100.590 0 95.550 0L46.305 0Q43.680 0 42.472-1.050Q41.265-2.100 41.265-3.780Q41.265-6.930 45.045-7.980L51.870-9.345Q54.390-9.975 55.650-11.287Q56.910-12.600 56.910-14.700L56.910-138.285L42.210-138.285Q36.540-138.285 32.445-135.975Q28.350-133.665 24.360-127.207Q20.370-120.750 15.015-108.150Q13.965-105.945 12.495-105.210Q11.025-104.475 9.135-104.895Q7.140-105.210 6.353-106.733Q5.565-108.255 5.985-110.775L13.020-145.005Q13.860-148.260 15.277-149.572Q16.695-150.885 19.425-150.885Q21.315-150.885 22.995-149.940Q24.675-148.995 26.880-147.998Q29.085-147 32.550-147" transform="translate(2447.76 0)"/><path d="M122.010-124.635L84.210-48.195L61.740-44.100L17.115-131.985Q15.540-135.030 14.175-136.290Q12.810-137.550 10.500-138.180L7.035-139.125Q4.830-139.860 3.990-140.857Q3.150-141.855 3.150-143.220Q3.150-145.005 4.462-146.002Q5.775-147 8.400-147L56.490-147Q59.115-147 60.532-146.002Q61.950-145.005 61.950-143.220Q61.950-140.070 57.435-139.020L51.450-137.970Q47.670-137.130 46.883-135.607Q46.095-134.085 47.565-130.935L83.685-56.070L75.180-51.450L111.720-125.475Q113.925-130.200 112.718-133.455Q111.510-136.710 106.155-138.075L100.380-139.230Q98.700-139.650 97.807-140.648Q96.915-141.645 96.915-143.220Q96.915-145.005 98.227-146.002Q99.540-147 102.060-147L134.295-147Q136.920-147 138.232-146.002Q139.545-145.005 139.545-143.220Q139.545-141.750 138.757-140.857Q137.970-139.965 135.870-139.230L134.190-138.600Q131.775-137.760 129.885-136.290Q127.995-134.820 126.157-132.142Q124.320-129.465 122.010-124.635M58.275-14.700L58.275-53.655L86.310-53.865L86.310-14.700Q86.310-12.600 87.623-11.287Q88.935-9.975 91.350-9.345L98.175-7.980Q101.955-6.930 101.955-3.780Q101.955-2.100 100.748-1.050Q99.540 0 96.915 0L47.670 0Q45.150 0 43.890-1.050Q42.630-2.100 42.630-3.780Q42.630-6.930 46.410-7.980L53.235-9.345Q55.755-9.975 57.015-11.287Q58.275-12.600 58.275-14.700" transform="translate(2661.01 0)"/><path d="M135.240-93.660Q135.240-80.010 128.415-69.983Q121.590-59.955 109.200-54.442Q96.810-48.930 80.220-48.930Q68.880-48.930 59.535-51.292Q50.190-53.655 43.155-58.170L44.415-65.625Q48.300-63 52.920-61.215Q57.540-59.430 62.580-58.537Q67.620-57.645 72.975-57.645Q83.055-57.645 90.825-61.950Q98.595-66.255 103.057-74.498Q107.520-82.740 107.520-94.290Q107.520-107.835 102.165-117.810Q96.810-127.785 87.097-133.245Q77.385-138.705 64.260-138.705L54.495-138.705L54.495-14.700Q54.495-12.600 55.703-11.182Q56.910-9.765 59.430-9.345L69.405-8.085Q71.505-7.665 72.450-6.667Q73.395-5.670 73.395-3.780Q73.395-2.100 72.188-1.050Q70.980 0 68.355 0L15.855 0Q13.230 0 12.022-1.050Q10.815-2.100 10.815-3.780Q10.815-6.930 14.595-7.980L21.525-9.345Q23.940-9.975 25.200-11.287Q26.460-12.600 26.460-14.700L26.460-132.195Q26.460-134.400 25.200-135.713Q23.940-137.025 21.525-137.655L14.490-139.020Q10.815-140.070 10.815-143.220Q10.815-145.005 12.022-146.002Q13.230-147 15.855-147L64.890-147Q86.940-147 102.638-140.175Q118.335-133.350 126.787-121.275Q135.240-109.200 135.240-93.660" transform="translate(2873.95 0)"/><path d="M44.625-69.720L44.625-78.015L78.855-78.015Q85.575-78.015 88.358-80.745Q91.140-83.475 92.295-91.140Q92.715-93.240 93.765-94.237Q94.815-95.235 96.390-95.445Q99.645-95.655 100.590-91.665L108.885-60.480Q109.515-58.275 108.938-56.962Q108.360-55.650 106.575-55.125Q104.895-54.600 103.477-55.125Q102.060-55.650 101.010-57.225Q97.965-62.370 95.445-65.047Q92.925-67.725 89.828-68.722Q86.730-69.720 82.110-69.720L44.625-69.720M10.815-143.220Q10.815-145.005 12.022-146.002Q13.230-147 15.855-147L96.810-147Q100.170-147 102.427-148.050Q104.685-149.100 106.575-150.097Q108.465-151.095 110.775-151.095Q113.190-151.095 114.502-149.730Q115.815-148.365 116.760-145.005L125.160-114.660Q125.790-112.455 125.108-111.090Q124.425-109.725 122.535-109.095Q120.540-108.465 118.860-109.252Q117.180-110.040 116.025-112.245Q111.930-120.645 108.412-125.843Q104.895-131.040 101.430-133.822Q97.965-136.605 93.975-137.602Q89.985-138.600 84.840-138.600L54.495-138.600L54.495-17.430Q54.495-12.915 57.172-10.657Q59.850-8.400 65.310-8.400L87.675-8.400Q94.500-8.400 99.593-10.815Q104.685-13.230 109.567-20.265Q114.450-27.300 120.540-41.055Q121.380-42.945 122.797-43.680Q124.215-44.415 126-44.100Q127.995-43.785 128.887-42.315Q129.780-40.845 129.150-38.430L120.120-2.415Q119.280 0.735 117.862 2.257Q116.445 3.780 113.820 3.780Q111.720 3.780 109.830 2.835Q107.940 1.890 105.578 0.945Q103.215 0 99.855 0L15.855 0Q13.230 0 12.022-1.050Q10.815-2.100 10.815-3.780Q10.815-6.930 14.595-7.980L21.420-9.345Q23.940-9.975 25.200-11.287Q26.460-12.600 26.460-14.700L26.460-132.300Q26.460-134.400 25.200-135.713Q23.940-137.025 21.420-137.655L14.595-139.020Q10.815-140.070 10.815-143.220" transform="translate(3086.26 0)"/><path d="M68.040 3.150Q59.010 3.150 52.605 0.893Q46.200-1.365 42.262-3.623Q38.325-5.880 36.540-5.880Q34.755-5.880 33.547-4.515Q32.340-3.150 31.237-1.312Q30.135 0.525 28.875 1.942Q27.615 3.360 25.830 3.360Q24.045 3.360 22.890 2.205Q21.735 1.050 21.210-1.365L13.650-36.435Q13.335-38.325 14.122-39.690Q14.910-41.055 16.695-41.685Q18.690-42.420 20.212-41.633Q21.735-40.845 22.785-38.640Q28.875-26.355 35.910-19.058Q42.945-11.760 50.663-8.610Q58.380-5.460 66.360-5.460Q77.700-5.460 84.157-11.497Q90.615-17.535 90.720-27.720Q90.720-34.125 87.832-39.480Q84.945-44.835 76.965-49.822Q68.985-54.810 53.760-59.850Q37.905-65.310 28.350-72.030Q18.795-78.750 14.490-87.570Q10.185-96.390 10.185-107.835Q10.185-120.330 16.117-129.780Q22.050-139.230 32.707-144.427Q43.365-149.625 57.435-149.625Q67.095-149.625 73.290-147.577Q79.485-145.530 83.317-143.377Q87.150-141.225 89.460-141.225Q91.665-141.225 92.925-143.377Q94.185-145.530 95.550-147.735Q96.915-149.940 99.435-149.940Q101.220-149.940 102.427-148.732Q103.635-147.525 104.580-144.480L114.765-108.780Q115.395-106.575 114.660-104.843Q113.925-103.110 112.035-102.480Q110.040-101.850 108.517-102.638Q106.995-103.425 105.945-105.420Q99.225-118.860 91.770-126.630Q84.315-134.400 76.282-137.760Q68.250-141.120 59.955-141.120Q48.510-141.120 41.685-134.505Q34.860-127.890 34.860-116.865Q34.860-110.460 37.747-104.843Q40.635-99.225 48.405-94.028Q56.175-88.830 70.665-83.580Q87.045-77.595 96.653-70.822Q106.260-64.050 110.407-55.807Q114.555-47.565 114.450-37.065Q114.450-25.935 108.990-16.852Q103.530-7.770 93.188-2.310Q82.845 3.150 68.040 3.150" transform="translate(3524.85 0)"/><path d="M135.240-93.660Q135.240-80.010 128.415-69.983Q121.590-59.955 109.200-54.442Q96.810-48.930 80.220-48.930Q68.880-48.930 59.535-51.292Q50.190-53.655 43.155-58.170L44.415-65.625Q48.300-63 52.920-61.215Q57.540-59.430 62.580-58.537Q67.620-57.645 72.975-57.645Q83.055-57.645 90.825-61.950Q98.595-66.255 103.057-74.498Q107.520-82.740 107.520-94.290Q107.520-107.835 102.165-117.810Q96.810-127.785 87.097-133.245Q77.385-138.705 64.260-138.705L54.495-138.705L54.495-14.700Q54.495-12.600 55.703-11.182Q56.910-9.765 59.430-9.345L69.405-8.085Q71.505-7.665 72.450-6.667Q73.395-5.670 73.395-3.780Q73.395-2.100 72.188-1.050Q70.980 0 68.355 0L15.855 0Q13.230 0 12.022-1.050Q10.815-2.100 10.815-3.780Q10.815-6.930 14.595-7.980L21.525-9.345Q23.940-9.975 25.200-11.287Q26.460-12.600 26.460-14.700L26.460-132.195Q26.460-134.400 25.200-135.713Q23.940-137.025 21.525-137.655L14.490-139.020Q10.815-140.070 10.815-143.220Q10.815-145.005 12.022-146.002Q13.230-147 15.855-147L64.890-147Q86.940-147 102.638-140.175Q118.335-133.350 126.787-121.275Q135.240-109.200 135.240-93.660" transform="translate(3720.88 0)"/><path d="M44.625-69.720L44.625-78.015L78.855-78.015Q85.575-78.015 88.358-80.745Q91.140-83.475 92.295-91.140Q92.715-93.240 93.765-94.237Q94.815-95.235 96.390-95.445Q99.645-95.655 100.590-91.665L108.885-60.480Q109.515-58.275 108.938-56.962Q108.360-55.650 106.575-55.125Q104.895-54.600 103.477-55.125Q102.060-55.650 101.010-57.225Q97.965-62.370 95.445-65.047Q92.925-67.725 89.828-68.722Q86.730-69.720 82.110-69.720L44.625-69.720M10.815-143.220Q10.815-145.005 12.022-146.002Q13.230-147 15.855-147L96.810-147Q100.170-147 102.427-148.050Q104.685-149.100 106.575-150.097Q108.465-151.095 110.775-151.095Q113.190-151.095 114.502-149.730Q115.815-148.365 116.760-145.005L125.160-114.660Q125.790-112.455 125.108-111.090Q124.425-109.725 122.535-109.095Q120.540-108.465 118.860-109.252Q117.180-110.040 116.025-112.245Q111.930-120.645 108.412-125.843Q104.895-131.040 101.430-133.822Q97.965-136.605 93.975-137.602Q89.985-138.600 84.840-138.600L54.495-138.600L54.495-17.430Q54.495-12.915 57.172-10.657Q59.850-8.400 65.310-8.400L87.675-8.400Q94.500-8.400 99.593-10.815Q104.685-13.230 109.567-20.265Q114.450-27.300 120.540-41.055Q121.380-42.945 122.797-43.680Q124.215-44.415 126-44.100Q127.995-43.785 128.887-42.315Q129.780-40.845 129.150-38.430L120.120-2.415Q119.280 0.735 117.862 2.257Q116.445 3.780 113.820 3.780Q111.720 3.780 109.830 2.835Q107.940 1.890 105.578 0.945Q103.215 0 99.855 0L15.855 0Q13.230 0 12.022-1.050Q10.815-2.100 10.815-3.780Q10.815-6.930 14.595-7.980L21.420-9.345Q23.940-9.975 25.200-11.287Q26.460-12.600 26.460-14.700L26.460-132.300Q26.460-134.400 25.200-135.713Q23.940-137.025 21.420-137.655L14.595-139.020Q10.815-140.070 10.815-143.220" transform="translate(3933.19 0)"/><path d="M138.180-38.430Q137.970-30.870 133.928-23.415Q129.885-15.960 122.430-9.817Q114.975-3.675 104.422 0.053Q93.870 3.780 80.640 3.780Q58.380 3.780 42.210-5.985Q26.040-15.750 17.273-32.917Q8.505-50.085 8.505-72.450Q8.505-89.355 13.702-103.582Q18.900-117.810 28.350-128.362Q37.800-138.915 50.557-144.690Q63.315-150.465 78.435-150.465Q89.145-150.465 95.865-148.260Q102.585-146.055 106.417-143.850Q110.250-141.645 112.140-141.645Q114.450-141.645 115.815-143.588Q117.180-145.530 118.545-147.472Q119.910-149.415 122.220-149.415Q123.690-149.415 124.740-148.470Q125.790-147.525 126.420-145.110L137.550-108.570Q138.180-106.470 137.183-104.947Q136.185-103.425 134.190-103.005Q132.195-102.690 130.620-103.530Q129.045-104.370 128.100-106.365Q122.325-119.175 115.343-126.840Q108.360-134.505 100.117-137.917Q91.875-141.330 82.110-141.330Q72.345-141.330 64.050-136.972Q55.755-132.615 49.718-124.477Q43.680-116.340 40.320-104.843Q36.960-93.345 36.960-79.065Q36.960-57.225 43.785-42.105Q50.610-26.985 62.475-19.110Q74.340-11.235 89.460-11.235Q104.475-11.235 115.080-18.480Q125.685-25.725 131.040-38.640Q132.090-40.635 133.192-41.317Q134.295-42 135.660-41.790Q137.025-41.580 137.602-40.740Q138.180-39.900 138.180-38.430" transform="translate(4139.73 0)"/><path d="M54.390-132.300L54.390-14.700Q54.390-12.600 55.703-11.287Q57.015-9.975 59.430-9.345L66.255-7.980Q70.035-6.930 70.035-3.780Q70.035-2.100 68.828-1.050Q67.620 0 64.995 0L15.750 0Q13.230 0 11.970-1.050Q10.710-2.100 10.710-3.780Q10.710-6.930 14.490-7.980L21.315-9.345Q23.835-9.975 25.095-11.287Q26.355-12.600 26.355-14.700L26.355-132.300Q26.355-134.400 25.095-135.713Q23.835-137.025 21.315-137.655L14.490-139.020Q10.710-140.070 10.710-143.220Q10.710-145.005 11.970-146.002Q13.230-147 15.750-147L64.995-147Q67.620-147 68.828-146.002Q70.035-145.005 70.035-143.220Q70.035-140.070 66.255-139.020L59.430-137.655Q57.015-137.025 55.703-135.713Q54.390-134.400 54.390-132.300" transform="translate(4356.13 0)"/><path d="M58.275-139.755L99.330-39.060L90.825-35.385L131.460-139.230Q133.140-143.640 135.398-145.320Q137.655-147 141.540-147L169.785-147Q172.410-147 173.722-146.002Q175.035-145.005 175.035-143.220Q175.035-141.750 174.142-140.700Q173.250-139.650 171.150-139.020L164.850-137.550Q161.490-136.710 160.282-134.925Q159.075-133.140 159.285-129.045L167.790-16.275Q168-12.915 169.207-11.550Q170.415-10.185 173.565-9.345L179.550-7.980Q181.545-7.455 182.385-6.457Q183.225-5.460 183.225-3.990Q183.225-2.310 181.965-1.155Q180.705 0 178.080 0L129.255 0Q126.630 0 125.317-1.050Q124.005-2.100 124.005-3.780Q124.005-5.250 124.845-6.300Q125.685-7.350 127.890-7.980L133.980-9.345Q137.550-10.290 138.810-11.760Q140.070-13.230 139.860-16.275L130.935-130.200L138.810-130.725L93.765-14.490Q92.295-10.500 90.667-9.293Q89.040-8.085 86.940-8.085Q85.470-8.085 84.157-8.557Q82.845-9.030 81.742-10.447Q80.640-11.865 79.485-14.805L33.390-127.995L40.845-131.565L31.605-19.845Q31.290-15.435 33.495-13.178Q35.700-10.920 39.900-9.345L46.200-7.560Q47.670-6.930 48.510-6.143Q49.350-5.355 49.350-3.885Q49.350-2.205 48.090-1.102Q46.830 0 44.205 0L9.555 0Q6.930 0 5.670-1.050Q4.410-2.100 4.410-3.780Q4.410-5.565 5.513-6.510Q6.615-7.455 8.505-8.085L13.545-9.660Q17.325-10.815 19.477-13.178Q21.630-15.540 21.945-19.845L30.975-127.050Q31.395-131.775 29.977-134.243Q28.560-136.710 25.095-137.550L19.320-138.810Q17.115-139.440 16.065-140.437Q15.015-141.435 15.015-143.115Q15.015-147 20.475-147L48.510-147Q52.185-147 54.390-145.530Q56.595-144.060 58.275-139.755" transform="translate(4508.28 0)"/><path d="M44.625-69.720L44.625-78.015L78.855-78.015Q85.575-78.015 88.358-80.745Q91.140-83.475 92.295-91.140Q92.715-93.240 93.765-94.237Q94.815-95.235 96.390-95.445Q99.645-95.655 100.590-91.665L108.885-60.480Q109.515-58.275 108.938-56.962Q108.360-55.650 106.575-55.125Q104.895-54.600 103.477-55.125Q102.060-55.650 101.010-57.225Q97.965-62.370 95.445-65.047Q92.925-67.725 89.828-68.722Q86.730-69.720 82.110-69.720L44.625-69.720M10.815-143.220Q10.815-145.005 12.022-146.002Q13.230-147 15.855-147L96.810-147Q100.170-147 102.427-148.050Q104.685-149.100 106.575-150.097Q108.465-151.095 110.775-151.095Q113.190-151.095 114.502-149.730Q115.815-148.365 116.760-145.005L125.160-114.660Q125.790-112.455 125.108-111.090Q124.425-109.725 122.535-109.095Q120.540-108.465 118.860-109.252Q117.180-110.040 116.025-112.245Q111.930-120.645 108.412-125.843Q104.895-131.040 101.430-133.822Q97.965-136.605 93.975-137.602Q89.985-138.600 84.840-138.600L54.495-138.600L54.495-17.430Q54.495-12.915 57.172-10.657Q59.850-8.400 65.310-8.400L87.675-8.400Q94.500-8.400 99.593-10.815Q104.685-13.230 109.567-20.265Q114.450-27.300 120.540-41.055Q121.380-42.945 122.797-43.680Q124.215-44.415 126-44.100Q127.995-43.785 128.887-42.315Q129.780-40.845 129.150-38.430L120.120-2.415Q119.280 0.735 117.862 2.257Q116.445 3.780 113.820 3.780Q111.720 3.780 109.830 2.835Q107.940 1.890 105.578 0.945Q103.215 0 99.855 0L15.855 0Q13.230 0 12.022-1.050Q10.815-2.100 10.815-3.780Q10.815-6.930 14.595-7.980L21.420-9.345Q23.940-9.975 25.200-11.287Q26.460-12.600 26.460-14.700L26.460-132.300Q26.460-134.400 25.200-135.713Q23.940-137.025 21.420-137.655L14.595-139.020Q10.815-140.070 10.815-143.220" transform="translate(4768.05 0)"/><path d="M55.230-3.780Q55.230-2.100 53.970-1.050Q52.710 0 50.085 0L13.965 0Q11.340 0 10.080-1.050Q8.820-2.100 8.820-3.780Q8.820-6.615 12.705-8.085L18.480-9.660Q23.205-11.235 25.043-13.440Q26.880-15.645 26.880-20.370L26.880-116.760Q26.880-119.805 26.145-121.695Q25.410-123.585 22.575-127.050L13.440-138.810Q12.075-140.700 11.497-141.750Q10.920-142.800 10.920-143.745Q10.920-145.320 12.075-146.160Q13.230-147 15.120-147L37.170-147Q39.690-147 41.422-146.055Q43.155-145.110 45.045-142.485L129.045-29.190L124.845-19.740L124.845-126.630Q124.845-131.355 123.112-133.507Q121.380-135.660 116.445-137.340L110.040-138.915Q106.155-140.490 106.155-143.220Q106.155-145.005 107.415-146.002Q108.675-147 111.300-147L147.420-147Q150.045-147 151.305-146.002Q152.565-145.005 152.565-143.220Q152.565-140.385 148.680-138.915L142.905-137.340Q138.180-135.870 136.343-133.665Q134.505-131.460 134.505-126.630L134.505-26.775Q134.505-23.835 135.082-21.840Q135.660-19.845 136.920-18.060L143.535-9.135Q145.215-6.930 145.635-5.775Q146.055-4.620 146.055-3.465Q146.055-1.890 144.900-0.945Q143.745 0 141.540 0L116.760 0Q112.665 0 112.665-3.360Q112.665-4.830 112.087-6.195Q111.510-7.560 108.885-10.920L28.455-119.805L36.540-125.265L36.540-20.265Q36.540-15.750 38.273-13.598Q40.005-11.445 44.940-9.660L51.345-8.085Q55.230-6.615 55.230-3.780" transform="translate(4974.58 0)"/></g>

  <!-- WORDBANK wordmark -->
  <g transform="translate(319.17 214.00) scale(0.1)" fill="#1b1b22"><path d="M428.070-38.278L609.250-704.306L618.820-696.013L448.485-66.348Q447.847-63.796 446.890-59.011Q445.933-54.226 445.933-47.209L445.933-6.380Q445.933-3.828 444.976-1.914Q444.019 0 440.829 0L273.046 0Q270.494 0 269.219-1.914Q267.943-3.828 267.943-6.380L267.943-47.209Q267.943-54.226 266.667-58.373Q265.391-62.520 264.115-68.900L66.986-858.692Q65.072-868.262 61.882-872.089Q58.692-875.917 51.675-877.831L12.121-886.762Q10.207-887.400 9.250-888.038Q8.293-888.676 8.293-889.952Q8.293-891.228 9.569-892.185Q10.845-893.142 12.121-893.142L320.255-893.142Q321.531-893.142 322.807-892.185Q324.083-891.228 324.083-889.952Q324.083-886.762 320.255-886.762L262.839-877.831Q253.270-875.917 250.399-870.494Q247.528-865.072 250.080-856.140L442.743-65.710L428.070-38.278M982.456-889.314Q982.456-890.590 983.732-891.866Q985.008-893.142 986.922-893.142L1185.327-893.142Q1187.241-893.142 1188.517-891.866Q1189.793-890.590 1189.793-889.314Q1189.793-887.400 1188.517-886.443Q1187.241-885.486 1184.051-884.211L1162.998-876.555Q1138.756-867.624 1118.341-844.657Q1097.927-821.691 1089.633-785.965L920.574-66.348Q919.936-63.796 918.979-59.011Q918.022-54.226 918.022-47.209L918.022-6.380Q918.022-3.828 917.065-1.914Q916.108 0 912.919 0L745.136 0Q742.584 0 741.308-1.914Q740.032-3.828 740.032-6.380L740.032-47.209Q740.032-54.226 739.075-58.692Q738.118-63.158 736.842-69.537L539.075-858.054Q536.523-866.986 533.652-871.132Q530.781-875.279 523.764-876.555L485.486-885.486Q482.935-886.762 481.659-887.719Q480.383-888.676 480.383-889.314Q480.383-891.228 481.659-892.185Q482.935-893.142 484.211-893.142L791.069-893.142Q792.982-893.142 793.939-892.185Q794.896-891.228 794.896-889.314Q794.896-888.676 793.301-887.400Q791.707-886.124 789.793-885.486L737.480-876.555Q727.911-875.279 725.040-869.537Q722.169-863.796 724.721-854.864L916.108-62.520L901.435-38.278L1077.512-787.879Q1085.167-820.415 1070.494-844.019Q1055.821-867.624 1013.716-878.469L988.198-884.211Q985.008-885.486 983.732-886.443Q982.456-887.400 982.456-889.314" transform="translate(0.00 0)"/><path d="M465.072-905.901Q562.679-905.901 642.743-872.408Q722.807-838.915 780.542-777.671Q838.278-716.427 869.537-632.855Q900.797-549.282 900.797-449.761Q900.797-345.774 869.537-260.606Q838.278-175.439 781.180-114.195Q724.083-52.951 645.295-20.096Q566.507 12.759 471.451 12.759Q373.844 12.759 293.461-20.734Q213.078-54.226 155.662-115.470Q98.246-176.715 66.986-261.882Q35.726-347.049 35.726-450.399Q35.726-551.834 67.305-635.407Q98.884-718.979 156.619-779.585Q214.354-840.191 292.823-873.046Q371.292-905.901 465.072-905.901M719.617-313.238Q719.617-405.104 703.987-490.590Q688.357-576.077 660.925-648.485Q633.493-720.893 595.853-775.120Q558.214-829.346 513.876-859.649Q469.537-889.952 421.053-889.952Q360.447-889.952 314.195-855.183Q267.943-820.415 242.424-752.791Q216.906-685.167 216.906-587.560Q216.906-493.780 232.217-407.337Q247.528-320.893 275.279-247.528Q303.030-174.163 340.351-119.298Q377.671-64.434 422.329-33.812Q466.986-3.190 515.470-3.190Q577.990-3.190 623.923-37.640Q669.856-72.089 694.737-140.989Q719.617-209.888 719.617-313.238" transform="translate(1224.88 0)"/><path d="M791.069-581.180Q791.069-516.746 762.679-465.072Q734.290-413.397 682.297-379.904Q630.303-346.411 558.214-333.652Q545.455-331.738 532.057-330.144Q518.660-328.549 504.625-327.592Q490.590-326.635 475.917-326.635Q425.518-326.635 388.198-333.014Q350.877-339.394 322.488-351.834Q294.099-364.274 271.132-382.775L276.874-392.344Q298.565-374.482 322.807-364.274Q347.049-354.067 373.844-349.601Q400.638-345.136 429.346-345.136Q511.643-345.136 561.404-401.276Q611.164-457.416 611.164-572.887Q611.164-662.201 578.309-731.738Q545.455-801.276 489.314-841.148Q433.174-881.021 362.360-881.021L306.220-881.021L306.220-42.743Q306.220-30.622 311.962-24.880Q317.703-19.139 331.100-16.587L382.775-8.931Q386.603-8.293 388.517-7.337Q390.431-6.380 390.431-3.828Q390.431 0 384.051 0L49.761 0Q46.571 0 44.976-1.276Q43.381-2.552 43.381-3.828Q43.381-7.656 51.037-8.931L102.711-16.587Q116.108-19.139 121.850-24.880Q127.592-30.622 127.592-42.743L127.592-858.692Q127.592-866.348 121.531-870.494Q115.470-874.641 102.711-876.555L51.037-884.211Q43.381-885.486 43.381-889.314Q43.381-890.590 44.976-891.866Q46.571-893.142 49.761-893.142L361.722-893.142Q496.332-893.142 592.344-854.545Q688.357-815.949 739.713-745.774Q791.069-675.598 791.069-581.180M597.129-58.054L435.088-338.118L601.595-357.257L785.965-49.761Q799.362-28.708 814.354-21.053Q829.346-13.397 848.485-8.931Q852.313-7.656 854.226-7.018Q856.140-6.380 856.140-3.828Q856.140-2.552 854.545-1.276Q852.951 0 849.761 0L556.938 0Q551.196 0 551.196-3.828Q551.196-6.380 553.110-7.018Q555.024-7.656 558.852-8.931L585.646-14.035Q601.595-19.139 605.104-28.708Q608.612-38.278 597.129-58.054" transform="translate(2212.44 0)"/><path d="M43.381-3.828Q43.381-8.293 50.399-8.931L105.263-17.225Q117.384-19.139 122.488-23.285Q127.592-27.432 127.592-35.088L127.592-856.140Q127.592-865.072 122.488-869.537Q117.384-874.003 105.901-875.917L49.123-884.848Q43.381-885.486 43.381-889.314Q43.381-891.228 44.976-892.185Q46.571-893.142 49.123-893.142L357.895-893.142Q473.365-893.142 568.740-859.649Q664.115-826.156 733.333-762.041Q802.552-697.927 840.191-606.061Q877.831-514.195 877.831-398.086Q877.831-272.408 820.734-183.413Q763.636-94.418 661.563-47.209Q559.490 0 423.604 0L49.123 0Q46.571 0 44.976-1.276Q43.381-2.552 43.381-3.828M330.463-11.483L423.604-11.483Q500.159-11.483 560.447-53.907Q620.734-96.332 655.502-185.965Q690.271-275.598 690.271-417.863Q690.271-530.144 667.624-616.587Q644.976-703.030 601.595-762.041Q558.214-821.053 496.970-851.356Q435.726-881.659 358.533-881.659L306.220-881.659L306.220-35.088Q306.220-24.242 312.600-17.863Q318.979-11.483 330.463-11.483" transform="translate(3112.60 0)"/><path d="M789.793-214.992Q789.793-119.298 710.367-59.649Q630.941 0 477.831 0L49.761 0Q46.571 0 44.976-1.276Q43.381-2.552 43.381-3.828Q43.381-7.656 51.037-8.931L102.711-16.587Q116.108-19.139 121.850-24.880Q127.592-30.622 127.592-42.743L127.592-858.692Q127.592-866.348 122.807-870.175Q118.022-874.003 102.711-876.555L51.037-884.211Q43.381-885.486 43.381-889.314Q43.381-890.590 44.976-891.866Q46.571-893.142 49.761-893.142L361.085-893.142Q482.935-893.142 567.464-860.925Q651.994-828.708 695.375-771.930Q738.756-715.152 738.756-640.510Q738.756-577.990 704.625-529.187Q670.494-480.383 606.380-452.632Q542.265-424.880 452.951-424.880L480.383-428.708Q571.611-428.708 641.467-400.957Q711.324-373.206 750.558-325.040Q789.793-276.874 789.793-214.992M409.569-418.501L285.805-418.501L285.805-431.260L417.863-431.260Q472.089-431.260 508.453-454.226Q544.817-477.193 562.998-521.850Q581.180-566.507 581.180-630.303Q581.180-705.582 552.153-762.041Q523.126-818.501 472.727-849.761Q422.329-881.021 357.895-881.021L302.392-881.021L302.392-38.278Q302.392-24.242 311.643-18.182Q320.893-12.121 337.480-12.121L433.812-12.121Q489.952-12.121 530.781-37.959Q571.611-63.796 593.301-110.048Q614.992-156.300 614.992-217.544Q614.992-310.048 562.360-364.274Q509.729-418.501 409.569-418.501" transform="translate(4077.83 0)"/><path d="M168.421-331.738L171.611-343.860L496.332-343.860L498.246-331.738L168.421-331.738M206.061-3.828Q206.061-2.552 204.785-1.276Q203.509 0 200.957 0L-2.552 0Q-4.466 0-5.742-1.276Q-7.018-2.552-7.018-3.828Q-7.018-6.380-5.104-7.337Q-3.190-8.293-1.914-8.931L22.329-15.949Q42.743-22.967 63.477-45.295Q84.211-67.624 98.246-114.195L304.306-815.949Q311.962-840.829 304.625-856.140Q297.289-871.451 278.150-879.745Q270.494-884.848 266.986-886.124Q263.477-887.400 263.477-889.314Q263.477-891.228 265.072-892.185Q266.667-893.142 269.856-893.142L518.022-893.142Q520.574-893.142 521.850-892.185Q523.126-891.228 523.126-889.314Q523.126-887.400 520.255-885.486Q517.384-883.573 509.729-880.383Q494.418-877.831 491.228-871.770Q488.038-865.710 493.142-848.485L750.239-42.105Q755.343-27.432 764.912-19.777Q774.482-12.121 789.793-10.207Q793.620-8.931 795.215-7.656Q796.810-6.380 796.810-3.828Q796.810-2.552 795.215-1.276Q793.620 0 791.069 0L509.729 0Q507.177 0 505.582-1.276Q503.987-2.552 503.987-3.828Q503.987-6.380 505.901-7.018Q507.815-7.656 511.643-8.931L542.265-14.035Q557.576-17.863 561.404-26.156Q565.231-34.450 560.128-50.399L314.514-826.156L329.825-859.330L109.729-112.281Q102.073-86.124 109.410-66.986Q116.746-47.847 135.247-35.088Q153.748-22.329 179.266-14.035L199.681-8.931Q203.509-8.293 204.785-7.337Q206.061-6.380 206.061-3.828" transform="translate(4954.39 0)"/><path d="M276.874-3.828Q276.874-2.552 275.598-1.276Q274.322 0 271.770 0L26.794 0Q23.604 0 22.329-1.276Q21.053-2.552 21.053-3.828Q21.053-6.380 28.070-8.931L66.348-19.777Q94.418-28.708 113.557-48.485Q132.695-68.262 132.695-103.987L132.695-752.153Q132.695-761.085 131.738-765.231Q130.781-769.378 124.402-778.947L65.072-876.555Q62.520-881.659 59.968-885.486Q57.416-889.314 57.416-891.228Q57.416-892.504 58.373-892.823Q59.330-893.142 62.520-893.142L257.097-893.142Q260.925-893.142 263.796-889.952Q266.667-886.762 271.132-879.107L726.635-119.298L717.065-100.159L717.065-789.155Q717.065-825.518 697.927-845.295Q678.788-865.072 649.442-873.365L592.026-884.211Q585.646-886.762 585.646-889.314Q585.646-890.590 586.922-891.866Q588.198-893.142 590.750-893.142L835.726-893.142Q838.278-893.142 839.553-891.866Q840.829-890.590 840.829-889.314Q840.829-886.762 834.450-884.211L796.172-873.365Q768.102-865.072 748.963-845.295Q729.825-825.518 729.825-789.155L729.825-125.040Q729.825-117.384 732.057-111.324Q734.290-105.263 737.480-100.159L782.775-27.432Q789.155-15.949 791.707-10.845Q794.258-5.742 794.258-3.828Q794.258-1.914 792.663-0.957Q791.069 0 786.603 0L603.509 0Q594.577 0 594.577-8.931Q594.577-12.759 592.982-18.182Q591.388-23.604 588.198-27.432L118.660-796.810L144.817-796.810L144.817-103.987Q144.817-68.262 164.274-48.166Q183.732-28.070 211.802-19.777L270.494-8.931Q276.874-6.380 276.874-3.828" transform="translate(5802.87 0)"/><path d="M276.874-304.944L272.408-315.152L625.199-724.083Q657.097-757.895 665.710-789.793Q674.322-821.691 662.201-845.614Q650.080-869.537 617.544-878.469L584.370-884.211Q581.180-885.486 579.904-886.443Q578.628-887.400 578.628-889.314Q578.628-891.228 579.904-892.185Q581.180-893.142 583.732-893.142L849.761-893.142Q852.313-893.142 853.589-892.185Q854.864-891.228 854.864-889.314Q854.864-887.400 852.951-886.124Q851.037-884.848 848.485-884.211Q830.622-878.469 811.164-868.900Q791.707-859.330 768.102-841.786Q744.498-824.242 712.919-795.534Q681.340-766.826 638.596-722.169L276.874-304.944M628.389-54.226L409.569-472.727L536.523-599.681L821.691-63.158Q836.364-35.726 849.761-23.604Q863.158-11.483 889.314-8.931Q892.504-8.931 894.099-7.656Q895.694-6.380 895.694-4.466Q895.694-2.552 893.780-1.276Q891.866 0 889.314 0L572.249 0Q570.335 0 568.740-1.276Q567.145-2.552 567.145-4.466Q567.145-7.018 568.740-7.974Q570.335-8.931 572.887-9.569L623.285-15.949Q632.855-17.225 635.726-25.837Q638.596-34.450 628.389-54.226M306.220-858.692L306.220-34.450Q306.220-26.794 312.600-22.967Q318.979-19.139 331.100-16.587L382.775-8.931Q386.603-8.293 388.517-7.337Q390.431-6.380 390.431-3.828Q390.431-2.552 388.836-1.276Q387.241 0 384.051 0L49.761 0Q46.571 0 44.976-1.276Q43.381-2.552 43.381-3.828Q43.381-7.656 51.037-8.931L102.711-16.587Q115.470-19.139 121.531-22.967Q127.592-26.794 127.592-34.450L127.592-858.692Q127.592-866.348 121.531-870.494Q115.470-874.641 102.711-876.555L51.037-884.211Q43.381-885.486 43.381-889.314Q43.381-890.590 44.976-891.866Q46.571-893.142 49.761-893.142L384.051-893.142Q387.241-893.142 388.836-891.866Q390.431-890.590 390.431-889.314Q390.431-885.486 382.775-884.211L331.100-876.555Q318.979-874.641 312.600-870.494Q306.220-866.348 306.220-858.692" transform="translate(6712.60 0)"/></g>

  <!-- tagline -->
  <g transform="translate(566.51 284.00) scale(0.1)" fill="#3a3a40"><path d="M20.305-132.060L11.625-134.230Q8.215-135.160 6.898-136.555Q5.580-137.950 5.580-139.655Q5.580-142.135 7.285-143.375Q8.990-144.615 11.780-144.615L22.010-144.615Q25.575-144.615 27.823-145.855Q30.070-147.095 32.085-150.195L48.360-174.220Q50.840-177.475 53.242-179.102Q55.645-180.730 58.125-180.730Q60.760-180.730 62.233-179.025Q63.705-177.320 63.705-174.220L63.705-40.145Q63.705-29.140 68.045-23.405Q72.385-17.670 80.290-17.670Q85.560-17.670 88.660-19.607Q91.760-21.545 93.698-24.102Q95.635-26.660 97.340-28.907Q99.045-31.155 101.370-31.930Q103.230-32.085 104.392-30.845Q105.555-29.605 105.400-26.660Q105.090-18.755 99.975-12.012Q94.860-5.270 86.025-1.163Q77.190 2.945 65.720 2.945Q47.585 2.945 37.045-6.277Q26.505-15.500 26.505-34.255L26.505-123.845Q26.505-127.255 25.110-129.115Q23.715-130.975 20.305-132.060M90.675-132.370L48.515-132.370L48.670-144.615L97.960-144.615Q101.060-144.615 102.688-143.452Q104.315-142.290 104.315-139.965Q104.315-136.710 101.060-134.540Q97.805-132.370 90.675-132.370" transform="translate(0.00 0)"/><path d="M66.805-221.495L66.805-20.925Q66.805-16.895 68.200-14.880Q69.595-12.865 72.385-11.935L79.050-10.385Q83.545-8.835 83.545-5.270Q83.545 0 76.570 0L18.755 0Q15.190 0 13.563-1.395Q11.935-2.790 11.935-5.115Q11.935-6.975 13.175-8.293Q14.415-9.610 17.050-10.385L24.025-11.935Q26.815-12.865 28.210-14.803Q29.605-16.740 29.605-20.925L29.605-198.865Q29.605-202.275 28.520-203.748Q27.435-205.220 24.955-205.530L15.345-205.995Q12.865-206.460 11.857-207.545Q10.850-208.630 10.850-210.490Q10.850-212.505 12.090-213.745Q13.330-214.985 16.740-216.225L45.880-226.145Q50.685-228.005 53.630-228.780Q56.575-229.555 59.055-229.555Q62.930-229.555 64.867-227.385Q66.805-225.215 66.805-221.495M68.820-111.445L62.465-106.020L56.730-112.065L62.930-117.490Q81.375-133.920 94.550-140.972Q107.725-148.025 119.815-148.025Q137.950-148.025 148.025-135.935Q158.100-123.845 160.425-102.920L169.880-21.545Q170.345-17.205 171.662-14.957Q172.980-12.710 176.080-11.935L182.280-10.385Q184.760-9.610 186-8.293Q187.240-6.975 187.240-5.115Q187.240-2.790 185.613-1.395Q183.985 0 180.420 0L121.985 0Q115.010 0 115.010-5.270Q115.010-8.835 119.350-10.385L126.325-11.935Q129.425-12.865 131.053-15.035Q132.680-17.205 132.215-21.545L123.225-97.650Q121.520-112.065 115.940-119.195Q110.360-126.325 99.510-126.325Q92.535-126.325 85.017-122.605Q77.500-118.885 68.820-111.445" transform="translate(117.49 0)"/><path d="M148.180-89.590Q148.180-82.925 144.227-79.282Q140.275-75.640 132.835-75.640L35.185-75.640L35.185-85.405L103.540-85.405Q110.515-85.405 110.515-91.760Q110.515-113.150 102.377-124.543Q94.240-135.935 80.755-135.935Q70.215-135.935 62.155-129.657Q54.095-123.380 49.600-111.600Q45.105-99.820 45.105-83.390Q45.105-52.700 59.365-37.123Q73.625-21.545 97.030-21.545Q111.755-21.545 122.605-28.133Q133.455-34.720 138.105-46.035Q140.120-48.515 141.438-49.445Q142.755-50.375 144.150-50.375Q146.165-50.375 147.095-48.593Q148.025-46.810 148.025-44.330Q147.095-31.155 138.725-20.227Q130.355-9.300 116.328-2.868Q102.300 3.565 84.320 3.565Q62.775 3.565 46.190-5.425Q29.605-14.415 20.305-30.845Q11.005-47.275 11.005-69.285Q11.005-92.225 19.995-109.972Q28.985-127.720 45.803-137.873Q62.620-148.025 85.560-148.025Q105.090-148.025 119.117-140.585Q133.145-133.145 140.662-119.970Q148.180-106.795 148.180-89.590" transform="translate(311.55 0)"/><path d="M83.390 1.240L70.215 1.240Q66.495 1.240 63.705-0.620Q60.915-2.480 59.210-6.975L19.220-123.535Q17.360-128.805 15.578-130.588Q13.795-132.370 11.160-132.990L5.735-134.230Q3.100-135.005 2.015-136.245Q0.930-137.485 0.930-139.500Q0.930-141.980 2.712-143.297Q4.495-144.615 7.595-144.615L70.680-144.615Q73.780-144.615 75.563-143.297Q77.345-141.980 77.345-139.500Q77.345-137.640 76.183-136.322Q75.020-135.005 71.920-134.385L65.565-133.145Q59.985-132.215 58.977-129.115Q57.970-126.015 60.760-117.335L92.380-21.080L84.010-13.020L121.675-123.535L132.680-115.785L94.240-6.045Q92.690-1.860 89.745-0.310Q86.800 1.240 83.390 1.240M178.870 1.240L166.160 1.240Q162.595 1.240 159.650-0.697Q156.705-2.635 155.155-6.975L115.630-124.310Q114.080-129.115 112.453-130.743Q110.825-132.370 108.190-132.990L102.610-134.230Q100.130-135.005 99.045-136.245Q97.960-137.485 97.960-139.500Q97.960-144.615 104.625-144.615L165.385-144.615Q171.895-144.615 171.895-139.500Q171.895-137.485 170.732-136.167Q169.570-134.850 166.780-134.385L159.185-133.145Q155-132.525 154.225-129.270Q153.450-126.015 155.775-118.420L187.395-20.615L179.180-12.245L212.040-114.235Q215.295-124.310 214.210-128.185Q213.125-132.060 206.770-133.145L200.415-134.385Q197.470-135.005 196.230-136.245Q194.990-137.485 194.990-139.500Q194.990-141.980 196.773-143.297Q198.555-144.615 201.500-144.615L241.180-144.615Q244.280-144.615 246.063-143.297Q247.845-141.980 247.845-139.500Q247.845-137.640 246.760-136.322Q245.675-135.005 242.575-134.385L237.615-133.300Q234.515-132.370 232.113-128.805Q229.710-125.240 226.920-116.715L189.720-6.200Q188.325-1.860 185.303-0.310Q182.280 1.240 178.870 1.240" transform="translate(545.60 0)"/><path d="M89.745-148.025Q112.685-148.025 130.123-138.338Q147.560-128.650 157.403-111.522Q167.245-94.395 167.245-71.920Q167.245-50.220 157.170-33.093Q147.095-15.965 129.425-6.200Q111.755 3.565 88.505 3.565Q65.565 3.565 48.205-6.122Q30.845-15.810 21.003-32.937Q11.160-50.065 11.160-72.230Q11.160-94.240 21.157-111.290Q31.155-128.340 48.825-138.183Q66.495-148.025 89.745-148.025M100.285-9.300Q111.755-11.005 119.040-19.453Q126.325-27.900 128.572-42.547Q130.820-57.195 127.410-77.655Q124.155-98.115 117.103-111.445Q110.050-124.775 100.052-130.743Q90.055-136.710 78.120-135.005Q66.495-133.300 59.210-124.852Q51.925-116.405 49.755-101.757Q47.585-87.110 50.840-66.650Q54.250-46.500 61.380-33.093Q68.510-19.685 78.430-13.640Q88.350-7.595 100.285-9.300" transform="translate(798.72 0)"/><path d="M66.805-80.910L62-80.600Q62-102.765 68.355-117.722Q74.710-132.680 84.940-140.352Q95.170-148.025 106.640-148.025Q120.590-148.025 128.262-140.120Q135.935-132.215 135.935-117.800Q135.935-105.865 130.820-99.897Q125.705-93.930 117.645-93.930Q109.585-93.930 105.323-98.270Q101.060-102.610 101.060-110.670L101.060-115.940Q100.905-121.055 98.657-123.535Q96.410-126.015 91.140-126.015Q85.095-126.015 79.515-121.132Q73.935-116.250 70.370-106.252Q66.805-96.255 66.805-80.910M65.100-139.035L66.805-100.905L66.805-21.080Q66.805-17.360 68.510-15.422Q70.215-13.485 74.245-12.710L88.195-10.695Q91.295-10.230 92.767-8.912Q94.240-7.595 94.240-5.115Q94.240-2.790 92.457-1.395Q90.675 0 87.265 0L18.755 0Q15.345 0 13.640-1.395Q11.935-2.790 11.935-5.115Q11.935-6.975 13.175-8.293Q14.415-9.610 17.050-10.385L24.025-11.935Q26.815-12.710 28.210-14.725Q29.605-16.740 29.605-20.770L29.605-116.405Q29.605-119.660 28.520-121.132Q27.435-122.605 24.955-123.070L15.345-123.380Q13.020-123.845 11.935-125.007Q10.850-126.170 10.850-127.875Q10.850-129.890 12.090-131.208Q13.330-132.525 16.740-133.610L45.415-143.375Q51.460-145.545 54.328-146.243Q57.195-146.940 58.900-146.940Q61.845-146.940 63.240-145.080Q64.635-143.220 65.100-139.035" transform="translate(981.77 0)"/><path d="M122.605-15.345L122.605-24.645L121.520-25.575L121.520-198.865Q121.520-202.275 120.435-203.748Q119.350-205.220 117.025-205.530L107.415-205.995Q104.935-206.460 103.850-207.545Q102.765-208.630 102.765-210.490Q102.765-212.505 104.082-213.745Q105.400-214.985 108.655-216.225L137.950-226.145Q142.600-228.005 145.545-228.780Q148.490-229.555 150.970-229.555Q154.845-229.555 156.860-227.385Q158.875-225.215 158.875-221.495L158.875-20.925Q158.875-16.895 160.270-14.803Q161.665-12.710 164.455-11.935L171.275-10.385Q173.755-9.610 174.995-8.293Q176.235-6.975 176.235-5.115Q176.235-2.790 174.607-1.395Q172.980 0 169.415 0L137.795 0Q131.130 0 126.867-4.107Q122.605-8.215 122.605-15.345M11.160-68.510Q11.160-93 20.770-110.825Q30.380-128.650 46.733-138.338Q63.085-148.025 83.080-148.025Q101.215-148.025 114.933-139.500Q128.650-130.975 137.330-115.320L129.115-107.880Q121.830-120.745 111.755-127.255Q101.680-133.765 89.900-133.765Q78.585-133.765 69.517-127.255Q60.450-120.745 55.258-107.183Q50.065-93.620 50.065-72.540Q50.065-53.010 55.025-40.068Q59.985-27.125 68.665-20.692Q77.345-14.260 88.505-14.260Q99.820-14.260 110.050-20.925Q120.280-27.590 128.960-41.075L134.230-33.635Q122.295-15.810 107.105-6.122Q91.915 3.565 73.780 3.565Q55.800 3.565 41.617-5.580Q27.435-14.725 19.297-31Q11.160-47.275 11.160-68.510" transform="translate(1126.69 0)"/><path d="M66.960-139.190L66.960-20.925Q66.960-16.895 68.355-14.803Q69.750-12.710 72.540-11.935L79.360-10.385Q81.995-9.610 83.157-8.293Q84.320-6.975 84.320-5.115Q84.320-2.790 82.692-1.395Q81.065 0 77.500 0L18.755 0Q15.345 0 13.717-1.395Q12.090-2.790 12.090-5.115Q12.090-6.975 13.252-8.293Q14.415-9.610 17.050-10.385L24.180-11.935Q26.970-12.865 28.288-14.803Q29.605-16.740 29.605-20.925L29.605-116.560Q29.605-119.815 28.598-121.287Q27.590-122.760 25.110-123.070L15.500-123.535Q13.020-124 12.012-125.162Q11.005-126.325 11.005-128.030Q11.005-130.045 12.245-131.363Q13.485-132.680 16.740-133.765L46.035-143.840Q50.995-145.700 53.862-146.398Q56.730-147.095 58.900-147.095Q62.930-147.095 64.945-144.925Q66.960-142.755 66.960-139.190M45.260-172.825Q34.410-172.825 27.745-178.715Q21.080-184.605 21.080-194.060Q21.080-203.515 27.745-209.405Q34.410-215.295 45.260-215.295Q56.265-215.295 63.008-209.405Q69.750-203.515 69.750-194.060Q69.750-184.605 63.008-178.715Q56.265-172.825 45.260-172.825" transform="translate(1386.94 0)"/><path d="M75.795-7.750Q86.955-7.750 93.310-13.485Q99.665-19.220 99.665-28.210Q99.665-33.790 97.030-38.440Q94.395-43.090 87.420-46.888Q80.445-50.685 67.580-53.940Q45.725-58.900 33.402-66.185Q21.080-73.470 16.198-82.847Q11.315-92.225 11.315-103.540Q11.315-123.845 25.730-135.935Q40.145-148.025 66.805-148.025Q76.880-148.025 83.235-146.320Q89.590-144.615 93.698-142.833Q97.805-141.050 100.595-141.050Q103.695-141.050 105.632-142.833Q107.570-144.615 109.507-146.320Q111.445-148.025 114.080-148.025Q116.095-148.025 117.567-146.785Q119.040-145.545 120.125-142.290L130.510-108.655Q131.905-104.470 131.363-101.680Q130.820-98.890 128.030-97.805Q125.240-96.720 123.147-97.728Q121.055-98.735 119.195-101.680Q112.065-114.855 104.082-122.450Q96.100-130.045 87.265-133.377Q78.430-136.710 68.820-136.710Q55.025-136.710 48.050-130.898Q41.075-125.085 41.075-115.165Q41.075-109.275 44.097-104.470Q47.120-99.665 55.025-95.635Q62.930-91.605 77.655-88.040Q96.720-83.545 107.957-76.802Q119.195-70.060 124.155-60.837Q129.115-51.615 129.115-39.215Q129.115-26.505 122.605-16.817Q116.095-7.130 104.625-1.705Q93.155 3.720 77.965 3.720Q68.355 3.720 62.310 1.628Q56.265-0.465 52.313-2.480Q48.360-4.495 45.105-4.495Q42.160-4.495 39.990-2.480Q37.820-0.465 35.883 1.550Q33.945 3.565 31.310 3.565Q29.450 3.565 28.133 2.170Q26.815 0.775 26.195-2.480L19.685-33.790Q18.755-38.905 19.297-41.462Q19.840-44.020 22.475-45.105Q25.110-46.190 27.203-44.795Q29.295-43.400 31.465-39.835Q41.075-22.630 52.468-15.190Q63.860-7.750 75.795-7.750" transform="translate(1483.97 0)"/><path d="M20.305-132.060L11.625-134.230Q8.215-135.160 6.898-136.555Q5.580-137.950 5.580-139.655Q5.580-142.135 7.285-143.375Q8.990-144.615 11.780-144.615L22.010-144.615Q25.575-144.615 27.823-145.855Q30.070-147.095 32.085-150.195L48.360-174.220Q50.840-177.475 53.242-179.102Q55.645-180.730 58.125-180.730Q60.760-180.730 62.233-179.025Q63.705-177.320 63.705-174.220L63.705-40.145Q63.705-29.140 68.045-23.405Q72.385-17.670 80.290-17.670Q85.560-17.670 88.660-19.607Q91.760-21.545 93.698-24.102Q95.635-26.660 97.340-28.907Q99.045-31.155 101.370-31.930Q103.230-32.085 104.392-30.845Q105.555-29.605 105.400-26.660Q105.090-18.755 99.975-12.012Q94.860-5.270 86.025-1.163Q77.190 2.945 65.720 2.945Q47.585 2.945 37.045-6.277Q26.505-15.500 26.505-34.255L26.505-123.845Q26.505-127.255 25.110-129.115Q23.715-130.975 20.305-132.060M90.675-132.370L48.515-132.370L48.670-144.615L97.960-144.615Q101.060-144.615 102.688-143.452Q104.315-142.290 104.315-139.965Q104.315-136.710 101.060-134.540Q97.805-132.370 90.675-132.370" transform="translate(1702.99 0)"/><path d="M66.805-221.495L66.805-20.925Q66.805-16.895 68.200-14.880Q69.595-12.865 72.385-11.935L79.050-10.385Q83.545-8.835 83.545-5.270Q83.545 0 76.570 0L18.755 0Q15.190 0 13.563-1.395Q11.935-2.790 11.935-5.115Q11.935-6.975 13.175-8.293Q14.415-9.610 17.050-10.385L24.025-11.935Q26.815-12.865 28.210-14.803Q29.605-16.740 29.605-20.925L29.605-198.865Q29.605-202.275 28.520-203.748Q27.435-205.220 24.955-205.530L15.345-205.995Q12.865-206.460 11.857-207.545Q10.850-208.630 10.850-210.490Q10.850-212.505 12.090-213.745Q13.330-214.985 16.740-216.225L45.880-226.145Q50.685-228.005 53.630-228.780Q56.575-229.555 59.055-229.555Q62.930-229.555 64.867-227.385Q66.805-225.215 66.805-221.495M68.820-111.445L62.465-106.020L56.730-112.065L62.930-117.490Q81.375-133.920 94.550-140.972Q107.725-148.025 119.815-148.025Q137.950-148.025 148.025-135.935Q158.100-123.845 160.425-102.920L169.880-21.545Q170.345-17.205 171.662-14.957Q172.980-12.710 176.080-11.935L182.280-10.385Q184.760-9.610 186-8.293Q187.240-6.975 187.240-5.115Q187.240-2.790 185.613-1.395Q183.985 0 180.420 0L121.985 0Q115.010 0 115.010-5.270Q115.010-8.835 119.350-10.385L126.325-11.935Q129.425-12.865 131.053-15.035Q132.680-17.205 132.215-21.545L123.225-97.650Q121.520-112.065 115.940-119.195Q110.360-126.325 99.510-126.325Q92.535-126.325 85.017-122.605Q77.500-118.885 68.820-111.445" transform="translate(1820.48 0)"/><path d="M148.180-89.590Q148.180-82.925 144.227-79.282Q140.275-75.640 132.835-75.640L35.185-75.640L35.185-85.405L103.540-85.405Q110.515-85.405 110.515-91.760Q110.515-113.150 102.377-124.543Q94.240-135.935 80.755-135.935Q70.215-135.935 62.155-129.657Q54.095-123.380 49.600-111.600Q45.105-99.820 45.105-83.390Q45.105-52.700 59.365-37.123Q73.625-21.545 97.030-21.545Q111.755-21.545 122.605-28.133Q133.455-34.720 138.105-46.035Q140.120-48.515 141.438-49.445Q142.755-50.375 144.150-50.375Q146.165-50.375 147.095-48.593Q148.025-46.810 148.025-44.330Q147.095-31.155 138.725-20.227Q130.355-9.300 116.328-2.868Q102.300 3.565 84.320 3.565Q62.775 3.565 46.190-5.425Q29.605-14.415 20.305-30.845Q11.005-47.275 11.005-69.285Q11.005-92.225 19.995-109.972Q28.985-127.720 45.803-137.873Q62.620-148.025 85.560-148.025Q105.090-148.025 119.117-140.585Q133.145-133.145 140.662-119.970Q148.180-106.795 148.180-89.590" transform="translate(2014.54 0)"/><path d="M104.315-18.755L104.315-21.545L101.990-22.010L101.990-113.460Q101.990-125.705 96.022-132.215Q90.055-138.725 79.050-138.725Q68.510-138.725 63.163-134.230Q57.815-129.735 57.815-123.535L57.815-110.825Q57.815-102.610 52.313-98.037Q46.810-93.465 37.200-93.465Q29.140-93.465 24.800-97.573Q20.460-101.680 20.460-108.965Q20.460-118.265 27.977-127.255Q35.495-136.245 50.065-142.058Q64.635-147.870 85.560-147.870Q112.685-147.870 125.860-136.555Q139.035-125.240 139.035-106.020L139.035-23.870Q139.035-19.065 140.895-16.740Q142.755-14.415 146.010-14.415Q149.575-14.415 151.280-16.120Q152.985-17.825 154.070-19.840Q154.845-20.770 155.620-21.390Q156.395-22.010 157.635-22.010Q159.185-22.010 159.882-20.925Q160.580-19.840 160.580-17.825Q160.580-13.330 157.403-8.370Q154.225-3.410 147.792 0.078Q141.360 3.565 131.750 3.565Q118.885 3.565 111.600-2.325Q104.315-8.215 104.315-18.755M13.485-31.930Q13.485-50.530 29.915-62.078Q46.345-73.625 76.260-73.625Q86.490-73.625 94.705-71.765Q102.920-69.905 109.120-66.960L106.485-59.055Q100.595-61.535 94.472-63.163Q88.350-64.790 81.065-64.790Q67.270-64.790 59.443-57.660Q51.615-50.530 51.615-38.130Q51.615-25.885 58.280-19.297Q64.945-12.710 75.330-12.710Q84.320-12.710 92.690-16.817Q101.060-20.925 106.950-28.520L110.050-21.390Q101.370-9.455 87.343-2.945Q73.315 3.565 57.660 3.565Q37.975 3.565 25.730-6.200Q13.485-15.965 13.485-31.930" transform="translate(2248.59 0)"/><path d="M66.805-80.910L62-80.600Q62-102.765 68.355-117.722Q74.710-132.680 84.940-140.352Q95.170-148.025 106.640-148.025Q120.590-148.025 128.262-140.120Q135.935-132.215 135.935-117.800Q135.935-105.865 130.820-99.897Q125.705-93.930 117.645-93.930Q109.585-93.930 105.323-98.270Q101.060-102.610 101.060-110.670L101.060-115.940Q100.905-121.055 98.657-123.535Q96.410-126.015 91.140-126.015Q85.095-126.015 79.515-121.132Q73.935-116.250 70.370-106.252Q66.805-96.255 66.805-80.910M65.100-139.035L66.805-100.905L66.805-21.080Q66.805-17.360 68.510-15.422Q70.215-13.485 74.245-12.710L88.195-10.695Q91.295-10.230 92.767-8.912Q94.240-7.595 94.240-5.115Q94.240-2.790 92.457-1.395Q90.675 0 87.265 0L18.755 0Q15.345 0 13.640-1.395Q11.935-2.790 11.935-5.115Q11.935-6.975 13.175-8.293Q14.415-9.610 17.050-10.385L24.025-11.935Q26.815-12.710 28.210-14.725Q29.605-16.740 29.605-20.770L29.605-116.405Q29.605-119.660 28.520-121.132Q27.435-122.605 24.955-123.070L15.345-123.380Q13.020-123.845 11.935-125.007Q10.850-126.170 10.850-127.875Q10.850-129.890 12.090-131.208Q13.330-132.525 16.740-133.610L45.415-143.375Q51.460-145.545 54.328-146.243Q57.195-146.940 58.900-146.940Q61.845-146.940 63.240-145.080Q64.635-143.220 65.100-139.035" transform="translate(2419.39 0)"/><path d="M20.305-132.060L11.625-134.230Q8.215-135.160 6.898-136.555Q5.580-137.950 5.580-139.655Q5.580-142.135 7.285-143.375Q8.990-144.615 11.780-144.615L22.010-144.615Q25.575-144.615 27.823-145.855Q30.070-147.095 32.085-150.195L48.360-174.220Q50.840-177.475 53.242-179.102Q55.645-180.730 58.125-180.730Q60.760-180.730 62.233-179.025Q63.705-177.320 63.705-174.220L63.705-40.145Q63.705-29.140 68.045-23.405Q72.385-17.670 80.290-17.670Q85.560-17.670 88.660-19.607Q91.760-21.545 93.698-24.102Q95.635-26.660 97.340-28.907Q99.045-31.155 101.370-31.930Q103.230-32.085 104.392-30.845Q105.555-29.605 105.400-26.660Q105.090-18.755 99.975-12.012Q94.860-5.270 86.025-1.163Q77.190 2.945 65.720 2.945Q47.585 2.945 37.045-6.277Q26.505-15.500 26.505-34.255L26.505-123.845Q26.505-127.255 25.110-129.115Q23.715-130.975 20.305-132.060M90.675-132.370L48.515-132.370L48.670-144.615L97.960-144.615Q101.060-144.615 102.688-143.452Q104.315-142.290 104.315-139.965Q104.315-136.710 101.060-134.540Q97.805-132.370 90.675-132.370" transform="translate(2564.32 0)"/></g>

  <!-- specimen word-plate row -->
  
  <g filter="url(#plateShadow)">
    <rect x="409.00" y="318.00" width="98.00" height="50.00" rx="8" fill="#e6d3a4"/>
  </g>
  <rect x="410.00" y="319.00" width="96.00" height="48.00" rx="8" fill="none" stroke="#c2a064" stroke-width="1.5" opacity="0.7"/>
  <g transform="translate(416.23 352.07) scale(0.1)" fill="#1b1b22"><path d="M47.840-80.730L47.840-91.520L159.510-91.520L159.510-80.730L47.840-80.730M67.470-163.800L67.470-18.200Q67.470-15.600 69.095-13.975Q70.720-12.350 73.710-11.570L82.160-9.880Q86.840-8.580 86.840-4.680Q86.840-2.600 85.345-1.300Q83.850 0 80.600 0L19.630 0Q16.380 0 14.885-1.300Q13.390-2.600 13.390-4.680Q13.390-8.580 18.070-9.880L26.520-11.570Q29.640-12.350 31.200-13.975Q32.760-15.600 32.760-18.200L32.760-163.800Q32.760-166.400 31.200-168.025Q29.640-169.650 26.520-170.430L18.070-172.120Q13.390-173.420 13.390-177.320Q13.390-179.530 14.885-180.765Q16.380-182 19.630-182L80.600-182Q83.850-182 85.345-180.765Q86.840-179.530 86.840-177.320Q86.840-173.420 82.160-172.120L73.710-170.430Q70.720-169.650 69.095-168.025Q67.470-166.400 67.470-163.800M182-163.800L182-18.200Q182-15.600 183.625-13.975Q185.250-12.350 188.240-11.570L196.690-9.880Q201.370-8.580 201.370-4.680Q201.370-2.600 199.875-1.300Q198.380 0 195.130 0L134.160 0Q130.910 0 129.415-1.300Q127.920-2.600 127.920-4.680Q127.920-8.580 132.600-9.880L141.050-11.570Q144.170-12.350 145.730-13.975Q147.290-15.600 147.290-18.200L147.290-163.800Q147.290-166.400 145.730-168.025Q144.170-169.650 141.050-170.430L132.600-172.120Q127.920-173.420 127.920-177.320Q127.920-179.530 129.415-180.765Q130.910-182 134.160-182L195.130-182Q198.380-182 199.875-180.765Q201.370-179.530 201.370-177.320Q201.370-173.420 196.690-172.120L188.240-170.430Q185.250-169.650 183.625-168.025Q182-166.400 182-163.800" transform="translate(0.00 0)"/><path d="M101.790-186.160Q122.590-186.160 139.490-179.140Q156.390-172.120 168.545-159.250Q180.700-146.380 187.265-128.765Q193.830-111.150 193.830-90.090Q193.830-69.420 187.265-52.130Q180.700-34.840 168.610-22.165Q156.520-9.490 139.685-2.535Q122.850 4.420 102.180 4.420Q81.640 4.420 64.805-2.600Q47.970-9.620 35.815-22.490Q23.660-35.360 17.095-53.040Q10.530-70.720 10.530-91.910Q10.530-112.450 17.095-129.675Q23.660-146.900 35.685-159.575Q47.710-172.250 64.480-179.205Q81.250-186.160 101.790-186.160M158.080-69.550Q158.080-86.840 154.830-102.635Q151.580-118.430 145.600-131.625Q139.620-144.820 131.625-154.570Q123.630-164.320 114.010-169.650Q104.390-174.980 93.860-174.980Q79.690-174.980 69.030-167.570Q58.370-160.160 52.455-146.185Q46.540-132.210 46.540-112.450Q46.540-94.900 49.790-79.040Q53.040-63.180 58.955-49.985Q64.870-36.790 72.865-27.040Q80.860-17.290 90.415-11.895Q99.970-6.500 110.500-6.500Q124.930-6.500 135.590-13.975Q146.250-21.450 152.165-35.490Q158.080-49.530 158.080-69.550" transform="translate(230.36 0)"/><path d="M13.390-4.680Q13.390-8.580 17.940-9.880L26.650-11.570Q29.640-12.350 31.200-13.975Q32.760-15.600 32.760-18.200L32.760-163.670Q32.760-166.400 31.200-168.025Q29.640-169.650 26.650-170.430L17.940-172.120Q13.390-173.420 13.390-177.320Q13.390-179.530 14.885-180.765Q16.380-182 19.630-182L84.890-182Q109.070-182 128.765-174.980Q148.460-167.960 162.695-155.025Q176.930-142.090 184.600-124.345Q192.270-106.600 192.270-85.150Q192.270-60.190 180.830-41.015Q169.390-21.840 148.070-10.920Q126.750 0 96.980 0L19.630 0Q16.380 0 14.885-1.300Q13.390-2.600 13.390-4.680M80.210-10.400L94.510-10.400Q113.230-10.400 127.010-18.850Q140.790-27.300 148.395-44.200Q156-61.100 156-86.320Q156-106.080 150.865-121.810Q145.730-137.540 135.980-148.655Q126.230-159.770 112.515-165.685Q98.800-171.600 81.510-171.600L67.470-171.600L67.470-20.800Q67.470-15.470 70.655-12.935Q73.840-10.400 80.210-10.400" transform="translate(450.45 0)"/><path d="M82.030-172.120L73.580-170.430Q70.590-169.650 68.965-168.025Q67.340-166.400 67.340-163.800L67.340-18.980Q67.340-14.430 70.070-12.415Q72.800-10.400 78.520-10.400L103.610-10.400Q110.890-10.400 116.155-12.415Q121.420-14.430 125.710-19.630Q130-24.830 134.160-34.320L142.350-52.910Q143.650-55.510 145.405-56.485Q147.160-57.460 149.500-56.940Q152.100-56.290 153.075-54.600Q154.050-52.910 153.270-49.920L141.830-2.990Q140.660 1.040 138.970 2.860Q137.280 4.680 134.030 4.680Q131.690 4.680 129.350 3.510Q127.010 2.340 124.085 1.170Q121.160 0 116.740 0L19.500 0Q16.380 0 14.820-1.300Q13.260-2.600 13.260-4.680Q13.260-8.580 17.940-9.880L26.390-11.570Q29.510-12.350 31.070-13.975Q32.630-15.600 32.630-18.200L32.630-163.800Q32.630-166.400 31.070-168.025Q29.510-169.650 26.390-170.430L17.940-172.120Q13.260-173.420 13.260-177.320Q13.260-179.530 14.820-180.765Q16.380-182 19.500-182L80.470-182Q83.720-182 85.215-180.765Q86.710-179.530 86.710-177.320Q86.710-173.420 82.030-172.120" transform="translate(668.46 0)"/></g>
  <g filter="url(#plateShadow)">
    <rect x="519.00" y="318.00" width="56.00" height="50.00" rx="8" fill="#1b1b22"/>
  </g>
  
  <g transform="translate(528.89 351.42) scale(0.1)" fill="#f6f1e4"><path d="M37.200-168L124.800-168Q128.760-168 131.280-169.140Q133.800-170.280 135.780-171.360Q137.760-172.440 139.920-172.440Q143.040-172.440 144.660-170.940Q146.280-169.440 147.240-165.720L155.280-126.600Q155.880-123.720 154.980-121.980Q154.080-120.240 151.680-119.880Q149.520-119.400 147.840-120.240Q146.160-121.080 144.960-123.600Q138.840-138.120 134.280-145.500Q129.720-152.880 125.100-155.460Q120.480-158.040 113.880-158.040L97.080-158.040L97.080-16.800Q97.080-14.400 98.580-12.900Q100.080-11.400 102.840-10.680L110.640-9.120Q114.960-7.920 114.960-4.320Q114.960 0 109.200 0L52.920 0Q49.920 0 48.540-1.200Q47.160-2.400 47.160-4.320Q47.160-7.920 51.480-9.120L59.280-10.680Q62.160-11.400 63.600-12.900Q65.040-14.400 65.040-16.800L65.040-158.040L48.240-158.040Q41.760-158.040 37.080-155.400Q32.400-152.760 27.840-145.380Q23.280-138 17.160-123.600Q15.960-121.080 14.280-120.240Q12.600-119.400 10.440-119.880Q8.160-120.240 7.260-121.980Q6.360-123.720 6.840-126.600L14.880-165.720Q15.840-169.440 17.460-170.940Q19.080-172.440 22.200-172.440Q24.360-172.440 26.280-171.360Q28.200-170.280 30.720-169.140Q33.240-168 37.200-168" transform="translate(0.00 0)"/><path d="M93.960-171.840Q113.160-171.840 128.760-165.360Q144.360-158.880 155.580-147Q166.800-135.120 172.860-118.860Q178.920-102.600 178.920-83.160Q178.920-64.080 172.860-48.120Q166.800-32.160 155.640-20.460Q144.480-8.760 128.940-2.340Q113.400 4.080 94.320 4.080Q75.360 4.080 59.820-2.400Q44.280-8.880 33.060-20.760Q21.840-32.640 15.780-48.960Q9.720-65.280 9.720-84.840Q9.720-103.800 15.780-119.700Q21.840-135.600 32.940-147.300Q44.040-159 59.520-165.420Q75-171.840 93.960-171.840M145.920-64.200Q145.920-80.160 142.920-94.740Q139.920-109.320 134.400-121.500Q128.880-133.680 121.500-142.680Q114.120-151.680 105.240-156.600Q96.360-161.520 86.640-161.520Q73.560-161.520 63.720-154.680Q53.880-147.840 48.420-134.940Q42.960-122.040 42.960-103.800Q42.960-87.600 45.960-72.960Q48.960-58.320 54.420-46.140Q59.880-33.960 67.260-24.960Q74.640-15.960 83.460-10.980Q92.280-6 102-6Q115.320-6 125.160-12.900Q135-19.800 140.460-32.760Q145.920-45.720 145.920-64.200" transform="translate(176.52 0)"/></g>
  <g filter="url(#plateShadow)">
    <rect x="587.00" y="318.00" width="98.00" height="50.00" rx="8" fill="#1f6f6b"/>
  </g>
  
  <g transform="translate(598.46 351.87) scale(0.1)" fill="#f6f1e4"><path d="M167.440-115.960Q167.440-99.060 158.990-86.645Q150.540-74.230 135.200-67.405Q119.860-60.580 99.320-60.580Q85.280-60.580 73.710-63.505Q62.140-66.430 53.430-72.020L54.990-81.250Q59.800-78 65.520-75.790Q71.240-73.580 77.480-72.475Q83.720-71.370 90.350-71.370Q102.830-71.370 112.450-76.700Q122.070-82.030 127.595-92.235Q133.120-102.440 133.120-116.740Q133.120-133.510 126.490-145.860Q119.860-158.210 107.835-164.970Q95.810-171.730 79.560-171.730L67.470-171.730L67.470-18.200Q67.470-15.600 68.965-13.845Q70.460-12.090 73.580-11.570L85.930-10.010Q88.530-9.490 89.700-8.255Q90.870-7.020 90.870-4.680Q90.870-2.600 89.375-1.300Q87.880 0 84.630 0L19.630 0Q16.380 0 14.885-1.300Q13.390-2.600 13.390-4.680Q13.390-8.580 18.070-9.880L26.650-11.570Q29.640-12.350 31.200-13.975Q32.760-15.600 32.760-18.200L32.760-163.670Q32.760-166.400 31.200-168.025Q29.640-169.650 26.650-170.430L17.940-172.120Q13.390-173.420 13.390-177.320Q13.390-179.530 14.885-180.765Q16.380-182 19.630-182L80.340-182Q107.640-182 127.075-173.550Q146.510-165.100 156.975-150.150Q167.440-135.200 167.440-115.960" transform="translate(0.00 0)"/><path d="M82.030-172.120L73.580-170.430Q70.590-169.650 68.965-168.025Q67.340-166.400 67.340-163.800L67.340-18.980Q67.340-14.430 70.070-12.415Q72.800-10.400 78.520-10.400L103.610-10.400Q110.890-10.400 116.155-12.415Q121.420-14.430 125.710-19.630Q130-24.830 134.160-34.320L142.350-52.910Q143.650-55.510 145.405-56.485Q147.160-57.460 149.500-56.940Q152.100-56.290 153.075-54.600Q154.050-52.910 153.270-49.920L141.830-2.990Q140.660 1.040 138.970 2.860Q137.280 4.680 134.030 4.680Q131.690 4.680 129.350 3.510Q127.010 2.340 124.085 1.170Q121.160 0 116.740 0L19.500 0Q16.380 0 14.820-1.300Q13.260-2.600 13.260-4.680Q13.260-8.580 17.940-9.880L26.390-11.570Q29.510-12.350 31.070-13.975Q32.630-15.600 32.630-18.200L32.630-163.800Q32.630-166.400 31.070-168.025Q29.510-169.650 26.390-170.430L17.940-172.120Q13.260-173.420 13.260-177.320Q13.260-179.530 14.820-180.765Q16.380-182 19.500-182L80.470-182Q83.720-182 85.215-180.765Q86.710-179.530 86.710-177.320Q86.710-173.420 82.030-172.120" transform="translate(190.06 0)"/><path d="M42.640-61.880L43.680-72.800L119.470-72.800L120.120-61.880L42.640-61.880M56.160-4.680Q56.160-2.600 54.665-1.300Q53.170 0 49.920 0L9.490 0Q6.370 0 4.810-1.235Q3.250-2.470 3.250-4.680Q3.250-6.240 4.160-7.345Q5.070-8.450 7.540-9.490L12.350-11.180Q16.120-12.870 18.395-15.990Q20.670-19.110 23.140-26.910L66.690-160.810Q68.380-165.880 67.405-168.220Q66.430-170.560 62.010-171.990Q58.760-173.030 57.395-174.265Q56.030-175.500 56.030-177.450Q56.030-179.660 57.655-180.830Q59.280-182 62.530-182L119.340-182Q122.590-182 124.150-180.830Q125.710-179.660 125.710-177.450Q125.710-175.500 124.410-174.200Q123.110-172.900 119.990-172.120Q116.480-171.210 115.765-169.520Q115.050-167.830 116.350-163.930L163.540-22.100Q165.230-16.640 167.570-13.975Q169.910-11.310 174.200-10.270Q177.580-9.100 178.685-7.865Q179.790-6.630 179.790-4.680Q179.790-2.600 178.165-1.300Q176.540 0 173.290 0L119.080 0Q115.830 0 114.270-1.300Q112.710-2.600 112.710-4.680Q112.710-6.500 113.815-7.670Q114.920-8.840 117.390-9.490L125.450-10.920Q128.830-11.830 128.895-13.975Q128.960-16.120 127.400-20.800L79.170-168.480L83.070-171.210L36.790-28.340Q35.100-23.270 35.295-19.955Q35.490-16.640 37.700-14.625Q39.910-12.610 44.200-10.920L51.610-9.360Q53.950-8.580 55.055-7.540Q56.160-6.500 56.160-4.680" transform="translate(364.78 0)"/><path d="M151.060-154.310L104.260-59.670L76.440-54.600L21.190-163.410Q19.240-167.180 17.550-168.740Q15.860-170.300 13-171.080L8.710-172.250Q5.980-173.160 4.940-174.395Q3.900-175.630 3.900-177.320Q3.900-179.530 5.525-180.765Q7.150-182 10.400-182L69.940-182Q73.190-182 74.945-180.765Q76.700-179.530 76.700-177.320Q76.700-173.420 71.110-172.120L63.700-170.820Q59.020-169.780 58.045-167.895Q57.070-166.010 58.890-162.110L103.610-69.420L93.080-63.700L138.320-155.350Q141.050-161.200 139.555-165.230Q138.060-169.260 131.430-170.950L124.280-172.380Q122.200-172.900 121.095-174.135Q119.990-175.370 119.990-177.320Q119.990-179.530 121.615-180.765Q123.240-182 126.360-182L166.270-182Q169.520-182 171.145-180.765Q172.770-179.530 172.770-177.320Q172.770-175.500 171.795-174.395Q170.820-173.290 168.220-172.380L166.140-171.600Q163.150-170.560 160.810-168.740Q158.470-166.920 156.195-163.605Q153.920-160.290 151.060-154.310M72.150-18.200L72.150-66.430L106.860-66.690L106.860-18.200Q106.860-15.600 108.485-13.975Q110.110-12.350 113.100-11.570L121.550-9.880Q126.230-8.580 126.230-4.680Q126.230-2.600 124.735-1.300Q123.240 0 119.990 0L59.020 0Q55.900 0 54.340-1.300Q52.780-2.600 52.780-4.680Q52.780-8.580 57.460-9.880L65.910-11.570Q69.030-12.350 70.590-13.975Q72.150-15.600 72.150-18.200" transform="translate(564.59 0)"/></g>
  <g filter="url(#plateShadow)">
    <rect x="715.00" y="318.00" width="98.00" height="50.00" rx="8" fill="#c9a227"/>
  </g>
  <rect x="716.00" y="319.00" width="96.00" height="48.00" rx="8" fill="none" stroke="#e8cc6a" stroke-width="1.5" opacity="0.7"/>
  <g transform="translate(722.23 352.07) scale(0.1)" fill="#1b1b22"><path d="M47.840-80.730L47.840-91.520L159.510-91.520L159.510-80.730L47.840-80.730M67.470-163.800L67.470-18.200Q67.470-15.600 69.095-13.975Q70.720-12.350 73.710-11.570L82.160-9.880Q86.840-8.580 86.840-4.680Q86.840-2.600 85.345-1.300Q83.850 0 80.600 0L19.630 0Q16.380 0 14.885-1.300Q13.390-2.600 13.390-4.680Q13.390-8.580 18.070-9.880L26.520-11.570Q29.640-12.350 31.200-13.975Q32.760-15.600 32.760-18.200L32.760-163.800Q32.760-166.400 31.200-168.025Q29.640-169.650 26.520-170.430L18.070-172.120Q13.390-173.420 13.390-177.320Q13.390-179.530 14.885-180.765Q16.380-182 19.630-182L80.600-182Q83.850-182 85.345-180.765Q86.840-179.530 86.840-177.320Q86.840-173.420 82.160-172.120L73.710-170.430Q70.720-169.650 69.095-168.025Q67.470-166.400 67.470-163.800M182-163.800L182-18.200Q182-15.600 183.625-13.975Q185.250-12.350 188.240-11.570L196.690-9.880Q201.370-8.580 201.370-4.680Q201.370-2.600 199.875-1.300Q198.380 0 195.130 0L134.160 0Q130.910 0 129.415-1.300Q127.920-2.600 127.920-4.680Q127.920-8.580 132.600-9.880L141.050-11.570Q144.170-12.350 145.730-13.975Q147.290-15.600 147.290-18.200L147.290-163.800Q147.290-166.400 145.730-168.025Q144.170-169.650 141.050-170.430L132.600-172.120Q127.920-173.420 127.920-177.320Q127.920-179.530 129.415-180.765Q130.910-182 134.160-182L195.130-182Q198.380-182 199.875-180.765Q201.370-179.530 201.370-177.320Q201.370-173.420 196.690-172.120L188.240-170.430Q185.250-169.650 183.625-168.025Q182-166.400 182-163.800" transform="translate(0.00 0)"/><path d="M101.790-186.160Q122.590-186.160 139.490-179.140Q156.390-172.120 168.545-159.250Q180.700-146.380 187.265-128.765Q193.830-111.150 193.830-90.090Q193.830-69.420 187.265-52.130Q180.700-34.840 168.610-22.165Q156.520-9.490 139.685-2.535Q122.850 4.420 102.180 4.420Q81.640 4.420 64.805-2.600Q47.970-9.620 35.815-22.490Q23.660-35.360 17.095-53.040Q10.530-70.720 10.530-91.910Q10.530-112.450 17.095-129.675Q23.660-146.900 35.685-159.575Q47.710-172.250 64.480-179.205Q81.250-186.160 101.790-186.160M158.080-69.550Q158.080-86.840 154.830-102.635Q151.580-118.430 145.600-131.625Q139.620-144.820 131.625-154.570Q123.630-164.320 114.010-169.650Q104.390-174.980 93.860-174.980Q79.690-174.980 69.030-167.570Q58.370-160.160 52.455-146.185Q46.540-132.210 46.540-112.450Q46.540-94.900 49.790-79.040Q53.040-63.180 58.955-49.985Q64.870-36.790 72.865-27.040Q80.860-17.290 90.415-11.895Q99.970-6.500 110.500-6.500Q124.930-6.500 135.590-13.975Q146.250-21.450 152.165-35.490Q158.080-49.530 158.080-69.550" transform="translate(230.36 0)"/><path d="M13.390-4.680Q13.390-8.580 17.940-9.880L26.650-11.570Q29.640-12.350 31.200-13.975Q32.760-15.600 32.760-18.200L32.760-163.670Q32.760-166.400 31.200-168.025Q29.640-169.650 26.650-170.430L17.940-172.120Q13.390-173.420 13.390-177.320Q13.390-179.530 14.885-180.765Q16.380-182 19.630-182L84.890-182Q109.070-182 128.765-174.980Q148.460-167.960 162.695-155.025Q176.930-142.090 184.600-124.345Q192.270-106.600 192.270-85.150Q192.270-60.190 180.830-41.015Q169.390-21.840 148.070-10.920Q126.750 0 96.980 0L19.630 0Q16.380 0 14.885-1.300Q13.390-2.600 13.390-4.680M80.210-10.400L94.510-10.400Q113.230-10.400 127.010-18.850Q140.790-27.300 148.395-44.200Q156-61.100 156-86.320Q156-106.080 150.865-121.810Q145.730-137.540 135.980-148.655Q126.230-159.770 112.515-165.685Q98.800-171.600 81.510-171.600L67.470-171.600L67.470-20.800Q67.470-15.470 70.655-12.935Q73.840-10.400 80.210-10.400" transform="translate(450.45 0)"/><path d="M82.030-172.120L73.580-170.430Q70.590-169.650 68.965-168.025Q67.340-166.400 67.340-163.800L67.340-18.980Q67.340-14.430 70.070-12.415Q72.800-10.400 78.520-10.400L103.610-10.400Q110.890-10.400 116.155-12.415Q121.420-14.430 125.710-19.630Q130-24.830 134.160-34.320L142.350-52.910Q143.650-55.510 145.405-56.485Q147.160-57.460 149.500-56.940Q152.100-56.290 153.075-54.600Q154.050-52.910 153.270-49.920L141.830-2.990Q140.660 1.040 138.970 2.860Q137.280 4.680 134.030 4.680Q131.690 4.680 129.350 3.510Q127.010 2.340 124.085 1.170Q121.160 0 116.740 0L19.500 0Q16.380 0 14.820-1.300Q13.260-2.600 13.260-4.680Q13.260-8.580 17.940-9.880L26.390-11.570Q29.510-12.350 31.070-13.975Q32.630-15.600 32.630-18.200L32.630-163.800Q32.630-166.400 31.070-168.025Q29.510-169.650 26.390-170.430L17.940-172.120Q13.260-173.420 13.260-177.320Q13.260-179.530 14.820-180.765Q16.380-182 19.500-182L80.470-182Q83.720-182 85.215-180.765Q86.710-179.530 86.710-177.320Q86.710-173.420 82.030-172.120" transform="translate(668.46 0)"/></g>
  <g filter="url(#plateShadow)">
    <rect x="825.00" y="318.00" width="56.00" height="50.00" rx="8" fill="#8e2434"/>
  </g>
  
  <g transform="translate(834.89 351.42) scale(0.1)" fill="#f6f1e4"><path d="M37.200-168L124.800-168Q128.760-168 131.280-169.140Q133.800-170.280 135.780-171.360Q137.760-172.440 139.920-172.440Q143.040-172.440 144.660-170.940Q146.280-169.440 147.240-165.720L155.280-126.600Q155.880-123.720 154.980-121.980Q154.080-120.240 151.680-119.880Q149.520-119.400 147.840-120.240Q146.160-121.080 144.960-123.600Q138.840-138.120 134.280-145.500Q129.720-152.880 125.100-155.460Q120.480-158.040 113.880-158.040L97.080-158.040L97.080-16.800Q97.080-14.400 98.580-12.900Q100.080-11.400 102.840-10.680L110.640-9.120Q114.960-7.920 114.960-4.320Q114.960 0 109.200 0L52.920 0Q49.920 0 48.540-1.200Q47.160-2.400 47.160-4.320Q47.160-7.920 51.480-9.120L59.280-10.680Q62.160-11.400 63.600-12.900Q65.040-14.400 65.040-16.800L65.040-158.040L48.240-158.040Q41.760-158.040 37.080-155.400Q32.400-152.760 27.840-145.380Q23.280-138 17.160-123.600Q15.960-121.080 14.280-120.240Q12.600-119.400 10.440-119.880Q8.160-120.240 7.260-121.980Q6.360-123.720 6.840-126.600L14.880-165.720Q15.840-169.440 17.460-170.940Q19.080-172.440 22.200-172.440Q24.360-172.440 26.280-171.360Q28.200-170.280 30.720-169.140Q33.240-168 37.200-168" transform="translate(0.00 0)"/><path d="M93.960-171.840Q113.160-171.840 128.760-165.360Q144.360-158.880 155.580-147Q166.800-135.120 172.860-118.860Q178.920-102.600 178.920-83.160Q178.920-64.080 172.860-48.120Q166.800-32.160 155.640-20.460Q144.480-8.760 128.940-2.340Q113.400 4.080 94.320 4.080Q75.360 4.080 59.820-2.400Q44.280-8.880 33.060-20.760Q21.840-32.640 15.780-48.960Q9.720-65.280 9.720-84.840Q9.720-103.800 15.780-119.700Q21.840-135.600 32.940-147.300Q44.040-159 59.520-165.420Q75-171.840 93.960-171.840M145.920-64.200Q145.920-80.160 142.920-94.740Q139.920-109.320 134.400-121.500Q128.880-133.680 121.500-142.680Q114.120-151.680 105.240-156.600Q96.360-161.520 86.640-161.520Q73.560-161.520 63.720-154.680Q53.880-147.840 48.420-134.940Q42.960-122.040 42.960-103.800Q42.960-87.600 45.960-72.960Q48.960-58.320 54.420-46.140Q59.880-33.960 67.260-24.960Q74.640-15.960 83.460-10.980Q92.280-6 102-6Q115.320-6 125.160-12.900Q135-19.800 140.460-32.760Q145.920-45.720 145.920-64.200" transform="translate(176.52 0)"/></g>
  <g filter="url(#plateShadow)">
    <rect x="893.00" y="318.00" width="98.00" height="50.00" rx="8" fill="#2c3a64"/>
  </g>
  
  <g transform="translate(902.60 352.12) scale(0.1)" fill="#f6f1e4"><path d="M55.250-86.320L55.250-96.590L97.630-96.590Q105.950-96.590 109.395-99.970Q112.840-103.350 114.270-112.840Q114.790-115.440 116.090-116.675Q117.390-117.910 119.340-118.170Q123.370-118.430 124.540-113.490L134.810-74.880Q135.590-72.150 134.875-70.525Q134.160-68.900 131.950-68.250Q129.870-67.600 128.115-68.250Q126.360-68.900 125.060-70.850Q121.290-77.220 118.170-80.535Q115.050-83.850 111.215-85.085Q107.380-86.320 101.660-86.320L55.250-86.320M13.390-177.320Q13.390-179.530 14.885-180.765Q16.380-182 19.630-182L119.860-182Q124.020-182 126.815-183.300Q129.610-184.600 131.950-185.835Q134.290-187.070 137.150-187.070Q140.140-187.070 141.765-185.380Q143.390-183.690 144.560-179.530L154.960-141.960Q155.740-139.230 154.895-137.540Q154.050-135.850 151.710-135.070Q149.240-134.290 147.160-135.265Q145.080-136.240 143.650-138.970Q138.580-149.370 134.225-155.805Q129.870-162.240 125.580-165.685Q121.290-169.130 116.350-170.365Q111.410-171.600 105.040-171.600L67.470-171.600L67.470-21.580Q67.470-15.990 70.785-13.195Q74.100-10.400 80.860-10.400L108.550-10.400Q117-10.400 123.305-13.390Q129.610-16.380 135.655-25.090Q141.700-33.800 149.240-50.830Q150.280-53.170 152.035-54.080Q153.790-54.990 156-54.600Q158.470-54.210 159.575-52.390Q160.680-50.570 159.900-47.580L148.720-2.990Q147.680 0.910 145.925 2.795Q144.170 4.680 140.920 4.680Q138.320 4.680 135.980 3.510Q133.640 2.340 130.715 1.170Q127.790 0 123.630 0L19.630 0Q16.380 0 14.885-1.300Q13.390-2.600 13.390-4.680Q13.390-8.580 18.070-9.880L26.520-11.570Q29.640-12.350 31.200-13.975Q32.760-15.600 32.760-18.200L32.760-163.800Q32.760-166.400 31.200-168.025Q29.640-169.650 26.520-170.430L18.070-172.120Q13.390-173.420 13.390-177.320" transform="translate(0.00 0)"/><path d="M42.640-61.880L43.680-72.800L119.470-72.800L120.120-61.880L42.640-61.880M56.160-4.680Q56.160-2.600 54.665-1.300Q53.170 0 49.920 0L9.490 0Q6.370 0 4.810-1.235Q3.250-2.470 3.250-4.680Q3.250-6.240 4.160-7.345Q5.070-8.450 7.540-9.490L12.350-11.180Q16.120-12.870 18.395-15.990Q20.670-19.110 23.140-26.910L66.690-160.810Q68.380-165.880 67.405-168.220Q66.430-170.560 62.010-171.990Q58.760-173.030 57.395-174.265Q56.030-175.500 56.030-177.450Q56.030-179.660 57.655-180.830Q59.280-182 62.530-182L119.340-182Q122.590-182 124.150-180.830Q125.710-179.660 125.710-177.450Q125.710-175.500 124.410-174.200Q123.110-172.900 119.990-172.120Q116.480-171.210 115.765-169.520Q115.050-167.830 116.350-163.930L163.540-22.100Q165.230-16.640 167.570-13.975Q169.910-11.310 174.200-10.270Q177.580-9.100 178.685-7.865Q179.790-6.630 179.790-4.680Q179.790-2.600 178.165-1.300Q176.540 0 173.290 0L119.080 0Q115.830 0 114.270-1.300Q112.710-2.600 112.710-4.680Q112.710-6.500 113.815-7.670Q114.920-8.840 117.390-9.490L125.450-10.920Q128.830-11.830 128.895-13.975Q128.960-16.120 127.400-20.800L79.170-168.480L83.070-171.210L36.790-28.340Q35.100-23.270 35.295-19.955Q35.490-16.640 37.700-14.625Q39.910-12.610 44.200-10.920L51.610-9.360Q53.950-8.580 55.055-7.540Q56.160-6.500 56.160-4.680" transform="translate(182.91 0)"/><path d="M169.520-119.600Q169.520-106.990 163.930-96.720Q158.340-86.450 148.070-79.625Q137.800-72.800 123.630-70.200Q119.080-69.420 115.115-68.640Q111.150-67.860 107.120-67.210Q103.090-66.560 98.280-66.560Q89.960-66.560 82.420-67.730Q74.880-68.900 68.640-71.110Q62.400-73.320 57.850-76.440L58.760-85.800Q62.660-83.070 67.925-81.120Q73.190-79.170 79.365-78.195Q85.540-77.220 92.170-77.220Q111.540-77.220 122.590-87.880Q133.640-98.540 133.640-119.210Q133.640-134.680 127.075-146.640Q120.510-158.600 108.485-165.425Q96.460-172.250 80.340-172.250L67.340-172.250L67.340-18.460Q67.340-15.600 68.770-13.975Q70.200-12.350 73.060-11.570L83.460-9.880Q86.190-8.970 87.165-7.800Q88.140-6.630 88.140-4.680Q88.140 0 81.900 0L19.500 0Q16.380 0 14.820-1.300Q13.260-2.600 13.260-4.680Q13.260-8.580 17.940-9.880L26.390-11.570Q29.510-12.350 31.070-13.975Q32.630-15.600 32.630-18.460L32.630-163.800Q32.630-166.400 31.070-168.025Q29.510-169.650 26.390-170.430L17.940-172.120Q13.260-173.420 13.260-177.320Q13.260-179.530 14.820-180.765Q16.380-182 19.500-182L81.380-182Q109.590-182 129.285-174.005Q148.980-166.010 159.250-151.970Q169.520-137.930 169.520-119.600M130.520-17.810L98.540-71.110L132.470-75.010L167.830-19.110Q170.300-15.210 173.095-13.195Q175.890-11.180 180.310-10.010Q184.080-8.970 185.380-7.800Q186.680-6.630 186.680-4.680Q186.680-2.600 185.120-1.300Q183.560 0 180.310 0L126.750 0Q120.640 0 120.640-4.680Q120.640-6.110 121.485-7.020Q122.330-7.930 124.020-8.710L128.700-9.620Q131.560-10.660 132.015-12.545Q132.470-14.430 130.520-17.810" transform="translate(382.72 0)"/><path d="M68.380-4.680Q68.380-2.600 66.820-1.300Q65.260 0 62.010 0L17.290 0Q14.040 0 12.480-1.300Q10.920-2.600 10.920-4.680Q10.920-8.190 15.730-10.010L22.880-11.960Q28.730-13.910 31.005-16.640Q33.280-19.370 33.280-25.220L33.280-144.560Q33.280-148.330 32.370-150.670Q31.460-153.010 27.950-157.300L16.640-171.860Q14.950-174.200 14.235-175.500Q13.520-176.800 13.520-177.970Q13.520-179.920 14.950-180.960Q16.380-182 18.720-182L46.020-182Q49.140-182 51.285-180.830Q53.430-179.660 55.770-176.410L159.770-36.140L154.570-24.440L154.570-156.780Q154.570-162.630 152.425-165.295Q150.280-167.960 144.170-170.040L136.240-171.990Q131.430-173.940 131.430-177.320Q131.430-179.530 132.990-180.765Q134.550-182 137.800-182L182.520-182Q185.770-182 187.330-180.765Q188.890-179.530 188.890-177.320Q188.890-173.810 184.080-171.990L176.930-170.040Q171.080-168.220 168.805-165.490Q166.530-162.760 166.530-156.780L166.530-33.150Q166.530-29.510 167.245-27.040Q167.960-24.570 169.520-22.360L177.710-11.310Q179.790-8.580 180.310-7.150Q180.830-5.720 180.830-4.290Q180.830-2.340 179.400-1.170Q177.970 0 175.240 0L144.560 0Q139.490 0 139.490-4.160Q139.490-5.980 138.775-7.670Q138.060-9.360 134.810-13.520L35.230-148.330L45.240-155.090L45.240-25.090Q45.240-19.500 47.385-16.835Q49.530-14.170 55.640-11.960L63.570-10.010Q68.380-8.190 68.380-4.680" transform="translate(585.78 0)"/></g>
  <!-- ink comma on the paper ground, between the two phrases (after PLAY) -->
  <g transform="translate(692.64 356.00) scale(0.1)" fill="#1b1b22"><path d="M80.080 1.400L70 1.400Q49.280 1.400 39.200-9.940Q29.120-21.280 29.120-38.360Q29.120-57.120 41.720-69.580Q54.320-82.040 73.080-82.040Q93.520-82.040 107.380-66.220Q121.240-50.400 121.240-16.240Q121.240 7.840 114.940 26.460Q108.640 45.080 97.720 58.520Q86.800 71.960 72.660 80.220Q58.520 88.480 42.840 92.120Q35.280 93.520 31.080 91.840Q26.880 90.160 26.040 86.520Q25.480 82.320 28.280 79.100Q31.080 75.880 39.760 72.800Q57.680 66.640 69.300 57.120Q80.920 47.600 86.520 36.120Q92.120 24.640 92.120 12.600Q92.120 NaN 89.600 4.200Q87.080 1.400 80.080 1.400" transform="translate(0.00 0)"/></g>
</svg>