<svg width="600" height="400" viewBox="0 0 600 400" xmlns="http://www.w3.org/2000/svg" role="img" aria-label="WORDBANK — the word is the art">
  <rect width="600" height="400" fill="#f6f1e4"/>
  <rect x="18.5" y="18.5" width="563" height="363" rx="6" fill="none" stroke="#e2d9c2" stroke-width="2"/>
  
  <g>
    <rect x="240.00" y="70.00" width="120.00" height="120.00" rx="11.250" fill="#1b1b22"/>
    <rect x="246.563" y="76.563" width="106.875" height="106.875" rx="6.563" fill="none" stroke="#f6f1e4" stroke-width="1.875" opacity="0.28"/>
    <g stroke="#f6f1e4" fill="none">
      <polyline points="268.125,107.500 285.938,155.313 300.000,115.938 314.063,155.313 331.875,107.500" stroke-width="9.750" stroke-linecap="butt" stroke-linejoin="miter"/>
      <path d="M260.250 104.500 h15.750 M324.000 104.500 h15.750" stroke-width="6.000"/>
    </g>
  </g>
  <g transform="translate(89.54 290.00) scale(0.1)" fill="#1b1b22"><path d="M239.378-21.405L340.695-393.850L346.046-389.213L250.794-37.102Q250.437-35.675 249.902-32.999Q249.367-30.324 249.367-26.399L249.367-3.567Q249.367-2.140 248.832-1.070Q248.297 0 246.513 0L152.688 0Q151.261 0 150.548-1.070Q149.834-2.140 149.834-3.567L149.834-26.399Q149.834-30.324 149.121-32.642Q148.407-34.961 147.694-38.529L37.459-480.183Q36.388-485.535 34.605-487.675Q32.821-489.816 28.897-490.886L6.778-495.880Q5.708-496.237 5.173-496.594Q4.638-496.951 4.638-497.664Q4.638-498.378 5.351-498.913Q6.065-499.448 6.778-499.448L179.088-499.448Q179.801-499.448 180.515-498.913Q181.228-498.378 181.228-497.664Q181.228-495.880 179.088-495.880L146.980-490.886Q141.629-489.816 140.024-486.783Q138.418-483.751 139.845-478.756L247.583-36.745L239.378-21.405M549.393-497.307Q549.393-498.021 550.106-498.734Q550.820-499.448 551.890-499.448L662.839-499.448Q663.909-499.448 664.622-498.734Q665.336-498.021 665.336-497.307Q665.336-496.237 664.622-495.702Q663.909-495.167 662.125-494.453L650.353-490.172Q636.796-485.178 625.380-472.335Q613.964-459.492 609.326-439.514L514.788-37.102Q514.431-35.675 513.896-32.999Q513.361-30.324 513.361-26.399L513.361-3.567Q513.361-2.140 512.826-1.070Q512.291 0 510.507 0L416.682 0Q415.255 0 414.542-1.070Q413.828-2.140 413.828-3.567L413.828-26.399Q413.828-30.324 413.293-32.821Q412.758-35.318 412.045-38.886L301.452-479.827Q300.025-484.821 298.420-487.140Q296.815-489.459 292.891-490.172L271.486-495.167Q270.059-495.880 269.345-496.416Q268.632-496.951 268.632-497.307Q268.632-498.378 269.345-498.913Q270.059-499.448 270.772-499.448L442.368-499.448Q443.438-499.448 443.973-498.913Q444.509-498.378 444.509-497.307Q444.509-496.951 443.617-496.237Q442.725-495.524 441.655-495.167L412.401-490.172Q407.050-489.459 405.445-486.248Q403.839-483.037 405.266-478.043L512.291-34.961L504.086-21.405L602.548-440.584Q606.829-458.779 598.624-471.978Q590.419-485.178 566.873-491.243L552.603-494.453Q550.820-495.167 550.106-495.702Q549.393-496.237 549.393-497.307" transform="translate(0.00 0)"/><path d="M260.070-506.583Q314.652-506.583 359.424-487.854Q404.196-469.124 436.482-434.876Q468.768-400.629 486.248-353.895Q503.729-307.160 503.729-251.508Q503.729-193.358 486.248-145.732Q468.768-98.106 436.839-63.858Q404.910-29.610 360.851-11.238Q316.793 7.135 263.637 7.135Q209.055 7.135 164.104-11.594Q119.154-30.324 87.047-64.571Q54.939-98.819 37.459-146.445Q19.978-194.071 19.978-251.864Q19.978-308.587 37.637-355.321Q55.296-402.056 87.582-435.947Q119.867-469.838 163.748-488.210Q207.628-506.583 260.070-506.583M402.412-175.164Q402.412-226.535 393.672-274.340Q384.932-322.144 369.591-362.635Q354.251-403.126 333.203-433.449Q312.155-463.773 287.361-480.719Q262.567-497.664 235.454-497.664Q201.563-497.664 175.699-478.221Q149.834-458.779 135.564-420.963Q121.294-383.148 121.294-328.565Q121.294-276.123 129.856-227.784Q138.418-179.444 153.937-138.418Q169.456-97.392 190.325-66.712Q211.195-36.032 236.168-18.908Q261.140-1.784 288.253-1.784Q323.214-1.784 348.900-21.048Q374.586-40.313 388.499-78.841Q402.412-117.370 402.412-175.164" transform="translate(677.82 0)"/><path d="M442.368-324.998Q442.368-288.966 426.493-260.070Q410.618-231.173 381.543-212.444Q352.468-193.714 312.155-186.579Q305.020-185.509 297.528-184.617Q290.037-183.725 282.188-183.190Q274.340-182.655 266.134-182.655Q237.951-182.655 217.081-186.223Q196.212-189.790 180.336-196.747Q164.461-203.703 151.618-214.049L154.829-219.400Q166.958-209.411 180.515-203.703Q194.071-197.995 209.055-195.498Q224.038-193.001 240.092-193.001Q286.112-193.001 313.939-224.395Q341.765-255.789 341.765-320.360Q341.765-370.305 323.393-409.191Q305.020-448.076 273.626-470.373Q242.232-492.670 202.633-492.670L171.239-492.670L171.239-23.902Q171.239-17.124 174.450-13.913Q177.661-10.702 185.152-9.275L214.049-4.994Q216.190-4.638 217.260-4.103Q218.330-3.567 218.330-2.140Q218.330 0 214.763 0L27.826 0Q26.043 0 25.151-0.713Q24.259-1.427 24.259-2.140Q24.259-4.281 28.540-4.994L57.437-9.275Q64.928-10.702 68.139-13.913Q71.350-17.124 71.350-23.902L71.350-480.183Q71.350-484.464 67.961-486.783Q64.571-489.102 57.437-490.172L28.540-494.453Q24.259-495.167 24.259-497.307Q24.259-498.021 25.151-498.734Q26.043-499.448 27.826-499.448L202.276-499.448Q277.550-499.448 331.241-477.865Q384.932-456.281 413.650-417.039Q442.368-377.797 442.368-324.998M333.917-32.464L243.302-189.077L336.414-199.779L439.514-27.826Q447.006-16.054 455.389-11.773Q463.773-7.492 474.475-4.994Q476.616-4.281 477.686-3.924Q478.756-3.567 478.756-2.140Q478.756-1.427 477.865-0.713Q476.973 0 475.189 0L311.441 0Q308.231 0 308.231-2.140Q308.231-3.567 309.301-3.924Q310.371-4.281 312.512-4.994L327.495-7.848Q336.414-10.702 338.376-16.054Q340.338-21.405 333.917-32.464" transform="translate(1222.93 0)"/><path d="M24.259-2.140Q24.259-4.638 28.183-4.994L58.864-9.632Q65.642-10.702 68.496-13.021Q71.350-15.340 71.350-19.621L71.350-478.756Q71.350-483.751 68.496-486.248Q65.642-488.745 59.220-489.816L27.470-494.810Q24.259-495.167 24.259-497.307Q24.259-498.378 25.151-498.913Q26.043-499.448 27.470-499.448L200.136-499.448Q264.707-499.448 318.041-480.719Q371.375-461.989 410.082-426.136Q448.790-390.283 469.838-338.911Q490.886-287.539 490.886-222.611Q490.886-152.332 458.957-102.565Q427.028-52.799 369.948-26.399Q312.868 0 236.881 0L27.470 0Q26.043 0 25.151-0.713Q24.259-1.427 24.259-2.140M184.796-6.421L236.881-6.421Q279.691-6.421 313.404-30.145Q347.116-53.869 366.559-103.992Q386.002-154.115 386.002-233.670Q386.002-296.458 373.337-344.797Q360.673-393.137 336.414-426.136Q312.155-459.135 277.907-476.081Q243.659-493.026 200.493-493.026L171.239-493.026L171.239-19.621Q171.239-13.556 174.807-9.989Q178.374-6.421 184.796-6.421" transform="translate(1719.17 0)"/><path d="M441.655-120.224Q441.655-66.712 397.239-33.356Q352.824 0 267.205 0L27.826 0Q26.043 0 25.151-0.713Q24.259-1.427 24.259-2.140Q24.259-4.281 28.540-4.994L57.437-9.275Q64.928-10.702 68.139-13.913Q71.350-17.124 71.350-23.902L71.350-480.183Q71.350-484.464 68.674-486.605Q65.998-488.745 57.437-490.172L28.540-494.453Q24.259-495.167 24.259-497.307Q24.259-498.021 25.151-498.734Q26.043-499.448 27.826-499.448L201.920-499.448Q270.059-499.448 317.328-481.432Q364.597-463.416 388.856-431.666Q413.115-399.915 413.115-358.175Q413.115-323.214 394.029-295.923Q374.943-268.632 339.089-253.113Q303.236-237.594 253.291-237.594L268.632-239.735Q319.647-239.735 358.711-224.216Q397.775-208.698 419.715-181.763Q441.655-154.829 441.655-120.224M229.033-234.027L159.823-234.027L159.823-241.162L233.670-241.162Q263.994-241.162 284.329-254.005Q304.663-266.848 314.831-291.820Q324.998-316.793 324.998-352.468Q324.998-394.564 308.766-426.136Q292.534-457.708 264.351-475.189Q236.168-492.670 200.136-492.670L169.099-492.670L169.099-21.405Q169.099-13.556 174.272-10.167Q179.444-6.778 188.720-6.778L242.589-6.778Q273.983-6.778 296.815-21.227Q319.647-35.675 331.776-61.539Q343.906-87.403 343.906-121.651Q343.906-173.380 314.474-203.703Q285.042-234.027 229.033-234.027" transform="translate(2251.80 0)"/><path d="M94.182-185.509L95.965-192.287L277.550-192.287L278.621-185.509L94.182-185.509M115.230-2.140Q115.230-1.427 114.516-0.713Q113.803 0 112.376 0L-1.427 0Q-2.497 0-3.211-0.713Q-3.924-1.427-3.924-2.140Q-3.924-3.567-2.854-4.103Q-1.784-4.638-1.070-4.994L12.486-8.919Q23.902-12.843 35.496-25.329Q47.091-37.815 54.939-63.858L170.169-456.281Q174.450-470.195 170.347-478.756Q166.245-487.318 155.542-491.956Q151.261-494.810 149.299-495.524Q147.337-496.237 147.337-497.307Q147.337-498.378 148.229-498.913Q149.121-499.448 150.905-499.448L289.680-499.448Q291.107-499.448 291.820-498.913Q292.534-498.378 292.534-497.307Q292.534-496.237 290.928-495.167Q289.323-494.097 285.042-492.313Q276.480-490.886 274.696-487.497Q272.913-484.108 275.767-474.475L419.536-23.545Q422.390-15.340 427.741-11.059Q433.093-6.778 441.655-5.708Q443.795-4.994 444.687-4.281Q445.579-3.567 445.579-2.140Q445.579-1.427 444.687-0.713Q443.795 0 442.368 0L285.042 0Q283.615 0 282.723-0.713Q281.831-1.427 281.831-2.140Q281.831-3.567 282.902-3.924Q283.972-4.281 286.112-4.994L303.236-7.848Q311.798-9.989 313.939-14.627Q316.079-19.264 313.225-28.183L175.877-461.989L184.439-480.540L61.361-62.788Q57.080-48.161 61.182-37.459Q65.285-26.756 75.631-19.621Q85.976-12.486 100.246-7.848L111.662-4.994Q113.803-4.638 114.516-4.103Q115.230-3.567 115.230-2.140" transform="translate(2734.83 0)"/><path d="M154.829-2.140Q154.829-1.427 154.115-0.713Q153.402 0 151.975 0L14.983 0Q13.200 0 12.486-0.713Q11.773-1.427 11.773-2.140Q11.773-3.567 15.697-4.994L37.102-11.059Q52.799-16.054 63.501-27.113Q74.204-38.172 74.204-58.150L74.204-420.606Q74.204-425.601 73.669-427.920Q73.133-430.239 69.566-435.590L36.388-490.172Q34.961-493.026 33.534-495.167Q32.107-497.307 32.107-498.378Q32.107-499.091 32.642-499.270Q33.178-499.448 34.961-499.448L143.770-499.448Q145.910-499.448 147.516-497.664Q149.121-495.880 151.618-491.599L406.337-66.712L400.985-56.010L400.985-441.298Q400.985-461.633 390.283-472.692Q379.580-483.751 363.170-488.389L331.063-494.453Q327.495-495.880 327.495-497.307Q327.495-498.021 328.209-498.734Q328.922-499.448 330.349-499.448L467.341-499.448Q468.768-499.448 469.481-498.734Q470.195-498.021 470.195-497.307Q470.195-495.880 466.627-494.453L445.222-488.389Q429.525-483.751 418.823-472.692Q408.120-461.633 408.120-441.298L408.120-69.923Q408.120-65.642 409.369-62.253Q410.618-58.864 412.401-56.010L437.730-15.340Q441.298-8.919 442.725-6.065Q444.152-3.211 444.152-2.140Q444.152-1.070 443.260-0.535Q442.368 0 439.871 0L337.484 0Q332.490 0 332.490-4.994Q332.490-7.135 331.598-10.167Q330.706-13.200 328.922-15.340L66.355-445.579L80.982-445.579L80.982-58.150Q80.982-38.172 91.863-26.935Q102.744-15.697 118.440-11.059L151.261-4.994Q154.829-3.567 154.829-2.140" transform="translate(3202.17 0)"/><path d="M154.829-170.526L152.332-176.234L349.614-404.910Q367.451-423.817 372.267-441.655Q377.083-459.492 370.305-472.870Q363.527-486.248 345.333-491.243L326.782-494.453Q324.998-495.167 324.284-495.702Q323.571-496.237 323.571-497.307Q323.571-498.378 324.284-498.913Q324.998-499.448 326.425-499.448L475.189-499.448Q476.616-499.448 477.329-498.913Q478.043-498.378 478.043-497.307Q478.043-496.237 476.973-495.524Q475.902-494.810 474.475-494.453Q464.487-491.243 453.606-485.891Q442.725-480.540 429.525-470.730Q416.325-460.919 398.666-444.865Q381.007-428.812 357.105-403.839L154.829-170.526M351.397-30.324L229.033-264.351L300.025-335.344L459.492-35.318Q467.697-19.978 475.189-13.200Q482.681-6.421 497.307-4.994Q499.091-4.994 499.983-4.281Q500.875-3.567 500.875-2.497Q500.875-1.427 499.805-0.713Q498.734 0 497.307 0L320.003 0Q318.933 0 318.041-0.713Q317.149-1.427 317.149-2.497Q317.149-3.924 318.041-4.459Q318.933-4.994 320.360-5.351L348.543-8.919Q353.895-9.632 355.500-14.448Q357.105-19.264 351.397-30.324M171.239-480.183L171.239-19.264Q171.239-14.983 174.807-12.843Q178.374-10.702 185.152-9.275L214.049-4.994Q216.190-4.638 217.260-4.103Q218.330-3.567 218.330-2.140Q218.330-1.427 217.438-0.713Q216.546 0 214.763 0L27.826 0Q26.043 0 25.151-0.713Q24.259-1.427 24.259-2.140Q24.259-4.281 28.540-4.994L57.437-9.275Q64.571-10.702 67.961-12.843Q71.350-14.983 71.350-19.264L71.350-480.183Q71.350-484.464 67.961-486.783Q64.571-489.102 57.437-490.172L28.540-494.453Q24.259-495.167 24.259-497.307Q24.259-498.021 25.151-498.734Q26.043-499.448 27.826-499.448L214.763-499.448Q216.546-499.448 217.438-498.734Q218.330-498.021 218.330-497.307Q218.330-495.167 214.049-494.453L185.152-490.172Q178.374-489.102 174.807-486.783Q171.239-484.464 171.239-480.183" transform="translate(3703.76 0)"/></g>
  <g transform="translate(195.58 330.00) scale(0.1)" fill="#3a3a40"><path d="M15.720-102.240L9-103.920Q6.360-104.640 5.340-105.720Q4.320-106.800 4.320-108.120Q4.320-110.040 5.640-111Q6.960-111.960 9.120-111.960L17.040-111.960Q19.800-111.960 21.540-112.920Q23.280-113.880 24.840-116.280L37.440-134.880Q39.360-137.400 41.220-138.660Q43.080-139.920 45-139.920Q47.040-139.920 48.180-138.600Q49.320-137.280 49.320-134.880L49.320-31.080Q49.320-22.560 52.680-18.120Q56.040-13.680 62.160-13.680Q66.240-13.680 68.640-15.180Q71.040-16.680 72.540-18.660Q74.040-20.640 75.360-22.380Q76.680-24.120 78.480-24.720Q79.920-24.840 80.820-23.880Q81.720-22.920 81.600-20.640Q81.360-14.520 77.400-9.300Q73.440-4.080 66.600-0.900Q59.760 2.280 50.880 2.280Q36.840 2.280 28.680-4.860Q20.520-12 20.520-26.520L20.520-95.880Q20.520-98.520 19.440-99.960Q18.360-101.400 15.720-102.240M70.200-102.480L37.560-102.480L37.680-111.960L75.840-111.960Q78.240-111.960 79.500-111.060Q80.760-110.160 80.760-108.360Q80.760-105.840 78.240-104.160Q75.720-102.480 70.200-102.480" transform="translate(0.00 0)"/><path d="M51.720-171.480L51.720-16.200Q51.720-13.080 52.800-11.520Q53.880-9.960 56.040-9.240L61.200-8.040Q64.680-6.840 64.680-4.080Q64.680 0 59.280 0L14.520 0Q11.760 0 10.500-1.080Q9.240-2.160 9.240-3.960Q9.240-5.400 10.200-6.420Q11.160-7.440 13.200-8.040L18.600-9.240Q20.760-9.960 21.840-11.460Q22.920-12.960 22.920-16.200L22.920-153.960Q22.920-156.600 22.080-157.740Q21.240-158.880 19.320-159.120L11.880-159.480Q9.960-159.840 9.180-160.680Q8.400-161.520 8.400-162.960Q8.400-164.520 9.360-165.480Q10.320-166.440 12.960-167.400L35.520-175.080Q39.240-176.520 41.520-177.120Q43.800-177.720 45.720-177.720Q48.720-177.720 50.220-176.040Q51.720-174.360 51.720-171.480M53.280-86.280L48.360-82.080L43.920-86.760L48.720-90.960Q63-103.680 73.200-109.140Q83.400-114.600 92.760-114.600Q106.800-114.600 114.600-105.240Q122.400-95.880 124.200-79.680L131.520-16.680Q131.880-13.320 132.900-11.580Q133.920-9.840 136.320-9.240L141.120-8.040Q143.040-7.440 144-6.420Q144.960-5.400 144.960-3.960Q144.960-2.160 143.700-1.080Q142.440 0 139.680 0L94.440 0Q89.040 0 89.040-4.080Q89.040-6.840 92.400-8.040L97.800-9.240Q100.200-9.960 101.460-11.640Q102.720-13.320 102.360-16.680L95.400-75.600Q94.080-86.760 89.760-92.280Q85.440-97.800 77.040-97.800Q71.640-97.800 65.820-94.920Q60-92.040 53.280-86.280" transform="translate(92.16 0)"/><path d="M114.720-69.360Q114.720-64.200 111.660-61.380Q108.600-58.560 102.840-58.560L27.240-58.560L27.240-66.120L80.160-66.120Q85.560-66.120 85.560-71.040Q85.560-87.600 79.260-96.420Q72.960-105.240 62.520-105.240Q54.360-105.240 48.120-100.380Q41.880-95.520 38.400-86.400Q34.920-77.280 34.920-64.560Q34.920-40.800 45.960-28.740Q57-16.680 75.120-16.680Q86.520-16.680 94.920-21.780Q103.320-26.880 106.920-35.640Q108.480-37.560 109.500-38.280Q110.520-39 111.600-39Q113.160-39 113.880-37.620Q114.600-36.240 114.600-34.320Q113.880-24.120 107.400-15.660Q100.920-7.200 90.060-2.220Q79.200 2.760 65.280 2.760Q48.600 2.760 35.760-4.200Q22.920-11.160 15.720-23.880Q8.520-36.600 8.520-53.640Q8.520-71.400 15.480-85.140Q22.440-98.880 35.460-106.740Q48.480-114.600 66.240-114.600Q81.360-114.600 92.220-108.840Q103.080-103.080 108.900-92.880Q114.720-82.680 114.720-69.360" transform="translate(243.60 0)"/><path d="M64.560 0.960L54.360 0.960Q51.480 0.960 49.320-0.480Q47.160-1.920 45.840-5.400L14.880-95.640Q13.440-99.720 12.060-101.100Q10.680-102.480 8.640-102.960L4.440-103.920Q2.400-104.520 1.560-105.480Q0.720-106.440 0.720-108Q0.720-109.920 2.100-110.940Q3.480-111.960 5.880-111.960L54.720-111.960Q57.120-111.960 58.500-110.940Q59.880-109.920 59.880-108Q59.880-106.560 58.980-105.540Q58.080-104.520 55.680-104.040L50.760-103.080Q46.440-102.360 45.660-99.960Q44.880-97.560 47.040-90.840L71.520-16.320L65.040-10.080L94.200-95.640L102.720-89.640L72.960-4.680Q71.760-1.440 69.480-0.240Q67.200 0.960 64.560 0.960M138.480 0.960L128.640 0.960Q125.880 0.960 123.600-0.540Q121.320-2.040 120.120-5.400L89.520-96.240Q88.320-99.960 87.060-101.220Q85.800-102.480 83.760-102.960L79.440-103.920Q77.520-104.520 76.680-105.480Q75.840-106.440 75.840-108Q75.840-111.960 81-111.960L128.040-111.960Q133.080-111.960 133.080-108Q133.080-106.440 132.180-105.420Q131.280-104.400 129.120-104.040L123.240-103.080Q120-102.600 119.400-100.080Q118.800-97.560 120.600-91.680L145.080-15.960L138.720-9.480L164.160-88.440Q166.680-96.240 165.840-99.240Q165-102.240 160.080-103.080L155.160-104.040Q152.880-104.520 151.920-105.480Q150.960-106.440 150.960-108Q150.960-109.920 152.340-110.940Q153.720-111.960 156-111.960L186.720-111.960Q189.120-111.960 190.500-110.940Q191.880-109.920 191.880-108Q191.880-106.560 191.040-105.540Q190.200-104.520 187.800-104.040L183.960-103.200Q181.560-102.480 179.700-99.720Q177.840-96.960 175.680-90.360L146.880-4.800Q145.800-1.440 143.460-0.240Q141.120 0.960 138.480 0.960" transform="translate(427.20 0)"/><path d="M69.480-114.600Q87.240-114.600 100.740-107.100Q114.240-99.600 121.860-86.340Q129.480-73.080 129.480-55.680Q129.480-38.880 121.680-25.620Q113.880-12.360 100.200-4.800Q86.520 2.760 68.520 2.760Q50.760 2.760 37.320-4.740Q23.880-12.240 16.260-25.500Q8.640-38.760 8.640-55.920Q8.640-72.960 16.380-86.160Q24.120-99.360 37.800-106.980Q51.480-114.600 69.480-114.600M77.640-7.200Q86.520-8.520 92.160-15.060Q97.800-21.600 99.540-32.940Q101.280-44.280 98.640-60.120Q96.120-75.960 90.660-86.280Q85.200-96.600 77.460-101.220Q69.720-105.840 60.480-104.520Q51.480-103.200 45.840-96.660Q40.200-90.120 38.520-78.780Q36.840-67.440 39.360-51.600Q42-36 47.520-25.620Q53.040-15.240 60.720-10.560Q68.400-5.880 77.640-7.200" transform="translate(624.36 0)"/><path d="M51.720-62.640L48-62.400Q48-79.560 52.920-91.140Q57.840-102.720 65.760-108.660Q73.680-114.600 82.560-114.600Q93.360-114.600 99.300-108.480Q105.240-102.360 105.240-91.200Q105.240-81.960 101.280-77.340Q97.320-72.720 91.080-72.720Q84.840-72.720 81.540-76.080Q78.240-79.440 78.240-85.680L78.240-89.760Q78.120-93.720 76.380-95.640Q74.640-97.560 70.560-97.560Q65.880-97.560 61.560-93.780Q57.240-90 54.480-82.260Q51.720-74.520 51.720-62.640M50.400-107.640L51.720-78.120L51.720-16.320Q51.720-13.440 53.040-11.940Q54.360-10.440 57.480-9.840L68.280-8.280Q70.680-7.920 71.820-6.900Q72.960-5.880 72.960-3.960Q72.960-2.160 71.580-1.080Q70.200 0 67.560 0L14.520 0Q11.880 0 10.560-1.080Q9.240-2.160 9.240-3.960Q9.240-5.400 10.200-6.420Q11.160-7.440 13.200-8.040L18.600-9.240Q20.760-9.840 21.840-11.400Q22.920-12.960 22.920-16.080L22.920-90.120Q22.920-92.640 22.080-93.780Q21.240-94.920 19.320-95.280L11.880-95.520Q10.080-95.880 9.240-96.780Q8.400-97.680 8.400-99Q8.400-100.560 9.360-101.580Q10.320-102.600 12.960-103.440L35.160-111Q39.840-112.680 42.060-113.220Q44.280-113.760 45.600-113.760Q47.880-113.760 48.960-112.320Q50.040-110.880 50.400-107.640" transform="translate(767.28 0)"/><path d="M94.920-11.880L94.920-19.080L94.080-19.800L94.080-153.960Q94.080-156.600 93.240-157.740Q92.400-158.880 90.600-159.120L83.160-159.480Q81.240-159.840 80.400-160.680Q79.560-161.520 79.560-162.960Q79.560-164.520 80.580-165.480Q81.600-166.440 84.120-167.400L106.800-175.080Q110.400-176.520 112.680-177.120Q114.960-177.720 116.880-177.720Q119.880-177.720 121.440-176.040Q123-174.360 123-171.480L123-16.200Q123-13.080 124.080-11.460Q125.160-9.840 127.320-9.240L132.600-8.040Q134.520-7.440 135.480-6.420Q136.440-5.400 136.440-3.960Q136.440-2.160 135.180-1.080Q133.920 0 131.160 0L106.680 0Q101.520 0 98.220-3.180Q94.920-6.360 94.920-11.880M8.640-53.040Q8.640-72 16.080-85.800Q23.520-99.600 36.180-107.100Q48.840-114.600 64.320-114.600Q78.360-114.600 88.980-108Q99.600-101.400 106.320-89.280L99.960-83.520Q94.320-93.480 86.520-98.520Q78.720-103.560 69.600-103.560Q60.840-103.560 53.820-98.520Q46.800-93.480 42.780-82.980Q38.760-72.480 38.760-56.160Q38.760-41.040 42.600-31.020Q46.440-21 53.160-16.020Q59.880-11.040 68.520-11.040Q77.280-11.040 85.200-16.200Q93.120-21.360 99.840-31.800L103.920-26.040Q94.680-12.240 82.920-4.740Q71.160 2.760 57.120 2.760Q43.200 2.760 32.220-4.320Q21.240-11.400 14.940-24Q8.640-36.600 8.640-53.040" transform="translate(880.68 0)"/><path d="M51.840-107.760L51.840-16.200Q51.840-13.080 52.920-11.460Q54-9.840 56.160-9.240L61.440-8.040Q63.480-7.440 64.380-6.420Q65.280-5.400 65.280-3.960Q65.280-2.160 64.020-1.080Q62.760 0 60 0L14.520 0Q11.880 0 10.620-1.080Q9.360-2.160 9.360-3.960Q9.360-5.400 10.260-6.420Q11.160-7.440 13.200-8.040L18.720-9.240Q20.880-9.960 21.900-11.460Q22.920-12.960 22.920-16.200L22.920-90.240Q22.920-92.760 22.140-93.900Q21.360-95.040 19.440-95.280L12-95.640Q10.080-96 9.300-96.900Q8.520-97.800 8.520-99.120Q8.520-100.680 9.480-101.700Q10.440-102.720 12.960-103.560L35.640-111.360Q39.480-112.800 41.700-113.340Q43.920-113.880 45.600-113.880Q48.720-113.880 50.280-112.200Q51.840-110.520 51.840-107.760M35.040-133.800Q26.640-133.800 21.480-138.360Q16.320-142.920 16.320-150.240Q16.320-157.560 21.480-162.120Q26.640-166.680 35.040-166.680Q43.560-166.680 48.780-162.120Q54-157.560 54-150.240Q54-142.920 48.780-138.360Q43.560-133.800 35.040-133.800" transform="translate(1084.56 0)"/><path d="M58.680-6Q67.320-6 72.240-10.440Q77.160-14.880 77.160-21.840Q77.160-26.160 75.120-29.760Q73.080-33.360 67.680-36.300Q62.280-39.240 52.320-41.760Q35.400-45.600 25.860-51.240Q16.320-56.880 12.540-64.140Q8.760-71.400 8.760-80.160Q8.760-95.880 19.920-105.240Q31.080-114.600 51.720-114.600Q59.520-114.600 64.440-113.280Q69.360-111.960 72.540-110.580Q75.720-109.200 77.880-109.200Q80.280-109.200 81.780-110.580Q83.280-111.960 84.780-113.280Q86.280-114.600 88.320-114.600Q89.880-114.600 91.020-113.640Q92.160-112.680 93-110.160L101.040-84.120Q102.120-80.880 101.700-78.720Q101.280-76.560 99.120-75.720Q96.960-74.880 95.340-75.660Q93.720-76.440 92.280-78.720Q86.760-88.920 80.580-94.800Q74.400-100.680 67.560-103.260Q60.720-105.840 53.280-105.840Q42.600-105.840 37.200-101.340Q31.800-96.840 31.800-89.160Q31.800-84.600 34.140-80.880Q36.480-77.160 42.600-74.040Q48.720-70.920 60.120-68.160Q74.880-64.680 83.580-59.460Q92.280-54.240 96.120-47.100Q99.960-39.960 99.960-30.360Q99.960-20.520 94.920-13.020Q89.880-5.520 81-1.320Q72.120 2.880 60.360 2.880Q52.920 2.880 48.240 1.260Q43.560-0.360 40.500-1.920Q37.440-3.480 34.920-3.480Q32.640-3.480 30.960-1.920Q29.280-0.360 27.780 1.200Q26.280 2.760 24.240 2.760Q22.800 2.760 21.780 1.680Q20.760 0.600 20.280-1.920L15.240-26.160Q14.520-30.120 14.940-32.100Q15.360-34.080 17.400-34.920Q19.440-35.760 21.060-34.680Q22.680-33.600 24.360-30.840Q31.800-17.520 40.620-11.760Q49.440-6 58.680-6" transform="translate(1160.88 0)"/><path d="M15.720-102.240L9-103.920Q6.360-104.640 5.340-105.720Q4.320-106.800 4.320-108.120Q4.320-110.040 5.640-111Q6.960-111.960 9.120-111.960L17.040-111.960Q19.800-111.960 21.540-112.920Q23.280-113.880 24.840-116.280L37.440-134.880Q39.360-137.400 41.220-138.660Q43.080-139.920 45-139.920Q47.040-139.920 48.180-138.600Q49.320-137.280 49.320-134.880L49.320-31.080Q49.320-22.560 52.680-18.120Q56.040-13.680 62.160-13.680Q66.240-13.680 68.640-15.180Q71.040-16.680 72.540-18.660Q74.040-20.640 75.360-22.380Q76.680-24.120 78.480-24.720Q79.920-24.840 80.820-23.880Q81.720-22.920 81.600-20.640Q81.360-14.520 77.400-9.300Q73.440-4.080 66.600-0.900Q59.760 2.280 50.880 2.280Q36.840 2.280 28.680-4.860Q20.520-12 20.520-26.520L20.520-95.880Q20.520-98.520 19.440-99.960Q18.360-101.400 15.720-102.240M70.200-102.480L37.560-102.480L37.680-111.960L75.840-111.960Q78.240-111.960 79.500-111.060Q80.760-110.160 80.760-108.360Q80.760-105.840 78.240-104.160Q75.720-102.480 70.200-102.480" transform="translate(1332.84 0)"/><path d="M51.720-171.480L51.720-16.200Q51.720-13.080 52.800-11.520Q53.880-9.960 56.040-9.240L61.200-8.040Q64.680-6.840 64.680-4.080Q64.680 0 59.280 0L14.520 0Q11.760 0 10.500-1.080Q9.240-2.160 9.240-3.960Q9.240-5.400 10.200-6.420Q11.160-7.440 13.200-8.040L18.600-9.240Q20.760-9.960 21.840-11.460Q22.920-12.960 22.920-16.200L22.920-153.960Q22.920-156.600 22.080-157.740Q21.240-158.880 19.320-159.120L11.880-159.480Q9.960-159.840 9.180-160.680Q8.400-161.520 8.400-162.960Q8.400-164.520 9.360-165.480Q10.320-166.440 12.960-167.400L35.520-175.080Q39.240-176.520 41.520-177.120Q43.800-177.720 45.720-177.720Q48.720-177.720 50.220-176.040Q51.720-174.360 51.720-171.480M53.280-86.280L48.360-82.080L43.920-86.760L48.720-90.960Q63-103.680 73.200-109.140Q83.400-114.600 92.760-114.600Q106.800-114.600 114.600-105.240Q122.400-95.880 124.200-79.680L131.520-16.680Q131.880-13.320 132.900-11.580Q133.920-9.840 136.320-9.240L141.120-8.040Q143.040-7.440 144-6.420Q144.960-5.400 144.960-3.960Q144.960-2.160 143.700-1.080Q142.440 0 139.680 0L94.440 0Q89.040 0 89.040-4.080Q89.040-6.840 92.400-8.040L97.800-9.240Q100.200-9.960 101.460-11.640Q102.720-13.320 102.360-16.680L95.400-75.600Q94.080-86.760 89.760-92.280Q85.440-97.800 77.040-97.800Q71.640-97.800 65.820-94.920Q60-92.040 53.280-86.280" transform="translate(1425.00 0)"/><path d="M114.720-69.360Q114.720-64.200 111.660-61.380Q108.600-58.560 102.840-58.560L27.240-58.560L27.240-66.120L80.160-66.120Q85.560-66.120 85.560-71.040Q85.560-87.600 79.260-96.420Q72.960-105.240 62.520-105.240Q54.360-105.240 48.120-100.380Q41.880-95.520 38.400-86.400Q34.920-77.280 34.920-64.560Q34.920-40.800 45.960-28.740Q57-16.680 75.120-16.680Q86.520-16.680 94.920-21.780Q103.320-26.880 106.920-35.640Q108.480-37.560 109.500-38.280Q110.520-39 111.600-39Q113.160-39 113.880-37.620Q114.600-36.240 114.600-34.320Q113.880-24.120 107.400-15.660Q100.920-7.200 90.060-2.220Q79.200 2.760 65.280 2.760Q48.600 2.760 35.760-4.200Q22.920-11.160 15.720-23.880Q8.520-36.600 8.520-53.640Q8.520-71.400 15.480-85.140Q22.440-98.880 35.460-106.740Q48.480-114.600 66.240-114.600Q81.360-114.600 92.220-108.840Q103.080-103.080 108.900-92.880Q114.720-82.680 114.720-69.360" transform="translate(1576.44 0)"/><path d="M80.760-14.520L80.760-16.680L78.960-17.040L78.960-87.840Q78.960-97.320 74.340-102.360Q69.720-107.400 61.200-107.400Q53.040-107.400 48.900-103.920Q44.760-100.440 44.760-95.640L44.760-85.800Q44.760-79.440 40.500-75.900Q36.240-72.360 28.800-72.360Q22.560-72.360 19.200-75.540Q15.840-78.720 15.840-84.360Q15.840-91.560 21.660-98.520Q27.480-105.480 38.760-109.980Q50.040-114.480 66.240-114.480Q87.240-114.480 97.440-105.720Q107.640-96.960 107.640-82.080L107.640-18.480Q107.640-14.760 109.080-12.960Q110.520-11.160 113.040-11.160Q115.800-11.160 117.120-12.480Q118.440-13.800 119.280-15.360Q119.880-16.080 120.480-16.560Q121.080-17.040 122.040-17.040Q123.240-17.040 123.780-16.200Q124.320-15.360 124.320-13.800Q124.320-10.320 121.860-6.480Q119.400-2.640 114.420 0.060Q109.440 2.760 102 2.760Q92.040 2.760 86.400-1.800Q80.760-6.360 80.760-14.520M10.440-24.720Q10.440-39.120 23.160-48.060Q35.880-57 59.040-57Q66.960-57 73.320-55.560Q79.680-54.120 84.480-51.840L82.440-45.720Q77.880-47.640 73.140-48.900Q68.400-50.160 62.760-50.160Q52.080-50.160 46.020-44.640Q39.960-39.120 39.960-29.520Q39.960-20.040 45.120-14.940Q50.280-9.840 58.320-9.840Q65.280-9.840 71.760-13.020Q78.240-16.200 82.800-22.080L85.200-16.560Q78.480-7.320 67.620-2.280Q56.760 2.760 44.640 2.760Q29.400 2.760 19.920-4.800Q10.440-12.360 10.440-24.720" transform="translate(1760.04 0)"/><path d="M51.720-62.640L48-62.400Q48-79.560 52.920-91.140Q57.840-102.720 65.760-108.660Q73.680-114.600 82.560-114.600Q93.360-114.600 99.300-108.480Q105.240-102.360 105.240-91.200Q105.240-81.960 101.280-77.340Q97.320-72.720 91.080-72.720Q84.840-72.720 81.540-76.080Q78.240-79.440 78.240-85.680L78.240-89.760Q78.120-93.720 76.380-95.640Q74.640-97.560 70.560-97.560Q65.880-97.560 61.560-93.780Q57.240-90 54.480-82.260Q51.720-74.520 51.720-62.640M50.400-107.640L51.720-78.120L51.720-16.320Q51.720-13.440 53.040-11.940Q54.360-10.440 57.480-9.840L68.280-8.280Q70.680-7.920 71.820-6.900Q72.960-5.880 72.960-3.960Q72.960-2.160 71.580-1.080Q70.200 0 67.560 0L14.520 0Q11.880 0 10.560-1.080Q9.240-2.160 9.240-3.960Q9.240-5.400 10.200-6.420Q11.160-7.440 13.200-8.040L18.600-9.240Q20.760-9.840 21.840-11.400Q22.920-12.960 22.920-16.080L22.920-90.120Q22.920-92.640 22.080-93.780Q21.240-94.920 19.320-95.280L11.880-95.520Q10.080-95.880 9.240-96.780Q8.400-97.680 8.400-99Q8.400-100.560 9.360-101.580Q10.320-102.600 12.960-103.440L35.160-111Q39.840-112.680 42.060-113.220Q44.280-113.760 45.600-113.760Q47.880-113.760 48.960-112.320Q50.040-110.880 50.400-107.640" transform="translate(1893.48 0)"/><path d="M15.720-102.240L9-103.920Q6.360-104.640 5.340-105.720Q4.320-106.800 4.320-108.120Q4.320-110.040 5.640-111Q6.960-111.960 9.120-111.960L17.040-111.960Q19.800-111.960 21.540-112.920Q23.280-113.880 24.840-116.280L37.440-134.880Q39.360-137.400 41.220-138.660Q43.080-139.920 45-139.920Q47.040-139.920 48.180-138.600Q49.320-137.280 49.320-134.880L49.320-31.080Q49.320-22.560 52.680-18.120Q56.040-13.680 62.160-13.680Q66.240-13.680 68.640-15.180Q71.040-16.680 72.540-18.660Q74.040-20.640 75.360-22.380Q76.680-24.120 78.480-24.720Q79.920-24.840 80.820-23.880Q81.720-22.920 81.600-20.640Q81.360-14.520 77.400-9.300Q73.440-4.080 66.600-0.900Q59.760 2.280 50.880 2.280Q36.840 2.280 28.680-4.860Q20.520-12 20.520-26.520L20.520-95.880Q20.520-98.520 19.440-99.960Q18.360-101.400 15.720-102.240M70.200-102.480L37.560-102.480L37.680-111.960L75.840-111.960Q78.240-111.960 79.500-111.060Q80.760-110.160 80.760-108.360Q80.760-105.840 78.240-104.160Q75.720-102.480 70.200-102.480" transform="translate(2006.88 0)"/></g>
</svg>